<?xml version="1.0" encoding="UTF-8" standalone="no"?>
<svg width="100%" height="100%" viewBox="0 0 106 94" xmlns="http://www.w3.org/2000/svg" xml:space="preserve" style="fill-rule:evenodd;clip-rule:evenodd;stroke-linejoin:round;stroke-miterlimit:2;">
    <g transform="matrix(1,0,0,1,-524.887,-486.582)">
        <g transform="matrix(6.83505,0,0,3.27354,-805.023,0)">
            <g id="dé" transform="matrix(0.244113,0,0,0.934597,135.643,62.7349)">
                <g transform="matrix(0.57856,0.0853078,-0.147228,0.296983,158.091,-16.6551)">
                    <path d="M281.163,286.446C283.234,285.583 285.537,285.601 287.596,286.495C295.904,290.104 318.057,299.727 326.406,303.355C328.369,304.207 329.651,306.236 329.651,308.489C329.651,319.108 329.651,349.435 329.651,359.822C329.651,361.98 328.472,363.943 326.63,364.852C318.499,368.864 296.15,379.892 286.952,384.431C284.396,385.692 281.443,385.679 278.897,384.394C269.87,379.837 248.159,368.878 240.21,364.866C238.39,363.947 237.23,361.997 237.23,359.856C237.23,349.52 237.23,319.228 237.23,308.546C237.23,306.265 238.544,304.216 240.543,303.383C249.229,299.761 272.577,290.026 281.163,286.446Z" style="fill:rgb(79,82,95);"/>
                </g>
                <g transform="matrix(0.599333,0,0,0.326857,117.779,0)">
                    <path d="M260.821,320.111L247.198,373.36L295.92,365.257L310.197,313.415L260.821,320.111Z" style="fill:rgb(79,82,95);"/>
                </g>
                <g transform="matrix(0.599333,0,0,0.326857,117.779,0)">
                    <path d="M245.617,374.476C243.985,374.074 242.448,373.295 241.14,372.176C233.545,365.68 215.278,350.056 208.591,344.336C206.642,342.669 205.826,340.029 206.496,337.554C209.035,328.163 216.476,300.639 219.1,290.934C219.813,288.296 222.069,286.364 224.785,286.064C234.059,285.041 258.989,282.289 268.157,281.278C270.731,280.993 273.316,281.712 275.375,283.284C282.508,288.731 301.529,303.257 308.698,308.732C310.009,309.733 310.871,311.159 311.181,312.711C311.237,312.833 311.276,312.964 311.296,313.104C311.316,313.248 311.314,313.391 311.292,313.528C311.346,314.261 311.278,315.01 311.079,315.746C308.471,325.394 301.021,352.95 298.469,362.387C297.794,364.883 295.733,366.761 293.185,367.2C284.35,368.723 260.067,372.91 250.073,374.633C249.034,374.813 247.986,374.838 246.961,374.719C246.703,374.805 246.418,374.819 246.136,374.741C245.94,374.688 245.765,374.596 245.617,374.476Z" style="fill:rgb(79,82,95);"/>
                </g>
            </g>
        </g>
    </g>
</svg>
