<svg xmlns="http://www.w3.org/2000/svg" width="1075.228" height="1113.353" viewBox="0 0 1075.228 1113.353">
  <g id="pen" transform="matrix(0.857, -0.515, 0.515, 0.857, -1291.894, -6.186)">
    <g id="Groupe_80" transform="translate(909.254 973.992)">
      <g id="alternance">
        <g id="Groupe_78" transform="translate(-556.399 23.331)">
          <path id="Tracé_38" d="M380.229,658.411ZM947.8,573.538s2.058,538.788,3.087,592.157c0,0,34.044,173.787,54.65,172.673s64.043-136,65.731-167c1.375-25.341.211-427.743-3.18-571.644-.119-5.032-.244-9.9-.373-14.406-.668-23.283-11.626-27.419-11.626-27.419s9.771-53.6-4.635-66.5-51.106-5.2-73.5-3.549-13.966,70.779-13.966,70.779Z" transform="translate(174.833 -484.077)" fill="#14182a" fill-rule="evenodd"/>
        </g>
        <g id="Groupe_79">
          <path id="Tracé_39" d="M954.767,565V527.616a43.778,43.778,0,0,1,43.774-43.766H1025.2a43.765,43.765,0,0,1,43.765,43.766v39.112a12.1,12.1,0,0,1-.509,3.506,43.751,43.751,0,0,1,12.133,30.242v565.956q.039,2.487,0,5.043v2.573a12.845,12.845,0,0,1-.121,1.744c-1.952,48.162-23.558,108.379-40.717,144.485-7.349,15.476-14.327,26.729-18.679,31.866a11.547,11.547,0,0,1-.19,1.875,15.057,15.057,0,0,1-1.4,4.274l-.424,52.436a12.284,12.284,0,0,1-24.568-.2l.423-52.739v-.216c-4.361-5.733-10.622-16.184-17.185-30-17.953-37.8-40.794-102-40.855-151.144a12.012,12.012,0,0,1-.233-2.383V652.921l-23.64.027-.725,201.041A12.288,12.288,0,1,1,887.7,853.9l.76-212.094a13.808,13.808,0,0,1,12.668-13.421l35.51-.034V600.476A43.865,43.865,0,0,1,954.767,565Zm42.1,783.89-.018.085.061-.233Zm58.264-162.553H961.762c2.729,44.129,22.625,97.991,38.161,130.7,2.185,4.585,4.534,9.016,6.7,12.875,2.91-4.845,7.177-12.272,10.933-20.182,14.694-30.91,33.274-80.75,37.574-123.39Zm.889-47.617-94.8.7v22.35h94.8Zm-94.8-49.526v25.648l94.8-.69V1088.5Zm0-50.13v25.553l94.8-.691v-25.554Zm0-386.167v361.6l94.8-.7V652.809Zm94.8-24.655V600.476a19.194,19.194,0,0,0-19.2-19.2H980.415a19.194,19.194,0,0,0-19.2,19.2v27.851ZM1044.4,527.616a19.2,19.2,0,0,0-19.2-19.2H998.541a19.194,19.194,0,0,0-19.2,19.2v26.823H1044.4Z" transform="translate(-378.607 -482.485)" fill="#14182a" fill-rule="evenodd"/>
        </g>
      </g>
    </g>
  </g>
</svg>
