<svg version="1.1" xmlns="http://www.w3.org/2000/svg" x="0px" y="0px"
	 viewBox="0 0 517.9 822.2" xml:space="preserve"
	 fill="#14182a">
<g transform="matrix(0.857, -0.515, 0.515, 0.857, -1291.894, -6.186)">
	<path d="M1068.5,780.1v-37.4c0-24.2,19.6-43.8,43.8-43.8h26.7c24.2,0,43.8,19.6,43.8,43.8l0,0v39.1
		c0,1.2-0.2,2.4-0.5,3.5c7.8,8.1,12.1,19,12.1,30.2v566c0,1.7,0,3.3,0,5v2.6c0,0.6,0,1.2-0.1,1.7c-2,48.2-23.6,108.4-40.7,144.5
		c-7.3,15.5-14.3,26.7-18.7,31.9c0,0.6-0.1,1.3-0.2,1.9c-0.3,1.5-0.7,2.9-1.4,4.3l-0.4,52.4c-0.1,6.8-5.6,12.2-12.4,12.2
		c-6.8-0.1-12.2-5.6-12.2-12.4l0,0l0.4-52.7v-0.2c-4.4-5.7-10.6-16.2-17.2-30c-18-37.8-40.8-102-40.9-151.1
		c-0.2-0.8-0.2-1.6-0.2-2.4V868.1h-23.6l-0.7,201c0,6.8-5.4,12.3-12.2,12.3c-6.8,0-12.3-5.4-12.3-12.2c0-0.1,0-0.1,0-0.2l0.8-212.1
		c0.2-7.1,5.6-12.8,12.7-13.4h35.5v-27.9C1050.4,801.5,1057.1,788.3,1068.5,780.1z M1110.6,1564L1110.6,1564L1110.6,1564
		L1110.6,1564z"/>
</g>
	<path d="M356.1,465.5"/>
	<path d="M428,380"/>
	<path d="M356.1,465.5"/>
	<path d="M275.2,515"/>
	<path d="M691,407"/>
	<path d="M463.9,740.9"/>
	<path d="M-138,163"/>
	<path d="M528,219"/>
</svg>
