<?xml version="1.0" encoding="UTF-8" standalone="no"?>
<svg width="100%" height="100%" viewBox="0 0 106 94" xmlns="http://www.w3.org/2000/svg" xml:space="preserve" style="fill-rule:evenodd;clip-rule:evenodd;stroke-linejoin:round;stroke-miterlimit:2;">
    <g transform="matrix(1,0,0,1,-206.265,-281.217)">
        <g transform="matrix(5.68835,0,0,3.27354,-669.967,0)">
            <g id="dé" transform="matrix(0.293322,0,0,0.934597,83.2316,0)">
                <g transform="matrix(0.57856,0.0853078,-0.147228,0.296983,158.091,-16.6551)">
                    <path d="M281.163,286.446C283.234,285.583 285.537,285.601 287.596,286.495C295.904,290.104 318.057,299.727 326.406,303.355C328.369,304.207 329.651,306.236 329.651,308.489C329.651,319.108 329.651,349.435 329.651,359.822C329.651,361.98 328.472,363.943 326.63,364.852C318.499,368.864 296.15,379.892 286.952,384.431C284.396,385.692 281.443,385.679 278.897,384.394C269.87,379.837 248.159,368.878 240.21,364.866C238.39,363.947 237.23,361.997 237.23,359.856C237.23,349.52 237.23,319.228 237.23,308.546C237.23,306.265 238.544,304.216 240.543,303.383C249.229,299.761 272.577,290.026 281.163,286.446Z" style="fill:rgb(121,154,205);"/>
                </g>
                <g transform="matrix(0.599333,0,0,0.326857,117.779,0)">
                    <path d="M260.821,320.111L247.198,373.36L295.92,365.257L310.197,313.415L260.821,320.111Z" style="fill:white;"/>
                </g>
                <g transform="matrix(0.599333,0,0,0.326857,117.779,0)">
                    <path d="M245.617,374.476C243.985,374.074 242.448,373.295 241.14,372.176C233.545,365.68 215.278,350.056 208.591,344.336C206.642,342.669 205.826,340.029 206.496,337.554C209.035,328.163 216.476,300.639 219.1,290.934C219.813,288.296 222.069,286.364 224.785,286.064C234.059,285.041 258.989,282.289 268.157,281.278C270.731,280.993 273.316,281.712 275.375,283.284C282.508,288.731 301.529,303.257 308.698,308.732C310.009,309.733 310.871,311.159 311.181,312.711C311.237,312.833 311.276,312.964 311.296,313.104C311.316,313.248 311.314,313.391 311.292,313.528C311.346,314.261 311.278,315.01 311.079,315.746C308.471,325.394 301.021,352.95 298.469,362.387C297.794,364.883 295.733,366.761 293.185,367.2C284.35,368.723 260.067,372.91 250.073,374.633C249.034,374.813 247.986,374.838 246.961,374.719C246.703,374.805 246.418,374.819 246.136,374.741C245.94,374.688 245.765,374.596 245.617,374.476ZM308.344,314.958L262.198,321.478L248.377,371.945C248.78,371.937 249.186,371.899 249.589,371.829C259.583,370.106 283.867,365.919 292.701,364.396C294.158,364.145 295.336,363.071 295.722,361.644C298.274,352.207 305.724,324.651 308.332,315.003C308.336,314.988 308.34,314.973 308.344,314.958ZM222.287,290.663C222.095,290.972 221.945,291.312 221.847,291.676C219.223,301.382 211.781,328.906 209.243,338.296C208.86,339.712 209.326,341.221 210.44,342.174C217.128,347.894 235.395,363.518 242.989,370.014C243.754,370.668 244.624,371.164 245.551,371.49L259.488,320.601L222.287,290.663ZM241.048,361.697C238.702,362.253 236.217,360.252 235.502,357.232C234.787,354.212 236.111,351.309 238.458,350.754C240.804,350.199 243.289,352.2 244.004,355.219C244.719,358.239 243.394,361.142 241.048,361.697ZM282.115,338.135C284.301,339.029 285.086,342.172 283.867,345.15C282.649,348.128 279.885,349.819 277.7,348.925C275.515,348.03 274.729,344.887 275.948,341.909C277.166,338.932 279.93,337.24 282.115,338.135ZM219.587,344.195C217.241,344.751 214.756,342.75 214.041,339.73C213.327,336.71 214.651,333.807 216.997,333.252C219.343,332.697 221.828,334.698 222.543,337.717C223.258,340.737 221.934,343.64 219.587,344.195ZM234.061,335.357C231.714,335.912 229.229,333.911 228.514,330.891C227.8,327.872 229.124,324.969 231.47,324.414C233.816,323.858 236.302,325.859 237.016,328.879C237.731,331.899 236.407,334.801 234.061,335.357ZM249.949,329.418C247.603,329.973 245.118,327.972 244.403,324.953C243.688,321.933 245.012,319.03 247.359,318.475C249.705,317.919 252.19,319.92 252.905,322.94C253.62,325.96 252.295,328.863 249.949,329.418ZM307.969,312.137C307.722,311.701 307.386,311.31 306.971,310.993C299.802,305.519 280.781,290.993 273.647,285.545C272.171,284.418 270.316,283.902 268.469,284.106C259.302,285.118 234.371,287.869 225.097,288.893C224.964,288.907 224.834,288.929 224.706,288.956L261.642,318.683L307.969,312.137ZM228.304,311.375C225.958,311.931 223.473,309.93 222.758,306.91C222.043,303.89 223.368,300.988 225.714,300.432C228.06,299.877 230.545,301.878 231.26,304.898C231.975,307.917 230.65,310.82 228.304,311.375ZM290.762,307.213C290.355,309.116 287.47,310.114 284.324,309.441C281.178,308.767 278.955,306.675 279.362,304.772C279.77,302.869 282.655,301.871 285.801,302.544C288.947,303.218 291.17,305.31 290.762,307.213ZM251.849,295.171C251.494,297.122 248.636,298.239 245.471,297.663C242.306,297.087 240.024,295.036 240.379,293.085C240.734,291.134 243.592,290.018 246.757,290.594C249.922,291.169 252.204,293.221 251.849,295.171Z" style="fill:rgb(70,51,61);"/>
                </g>
            </g>
        </g>
    </g>
</svg>
