<?xml version="1.0" encoding="UTF-8" standalone="no"?>
<svg width="100%" height="100%" viewBox="0 0 101 71" xmlns="http://www.w3.org/2000/svg" xml:space="preserve" style="fill-rule:evenodd;clip-rule:evenodd;stroke-linejoin:round;stroke-miterlimit:2;">
    <g transform="matrix(1,0,0,1,-208.494,-704.768)">
        <g transform="matrix(5.68835,0,0,3.27354,-669.967,0)">
            <g id="vidéos" transform="matrix(0.293322,0,0,0.934597,83.2316,0)">
                <g transform="matrix(0.599333,0,0,0.326857,117.779,0)">
                    <rect x="209.916" y="706.191" width="97.195" height="67.216" style="fill:white;"/>
                </g>
                <g transform="matrix(0.593603,0,0,0.326857,119.055,0)">
                    <rect x="222.762" y="706.335" width="72.722" height="66.636" style="fill:rgb(255,216,172);"/>
                </g>
                <g transform="matrix(3.89469e-17,0.346883,-0.497534,1.66148e-17,640.628,151.803)">
                    <path d="M259.342,718.975L276.198,756.258L242.485,756.258L259.342,718.975Z" style="fill:white;"/>
                </g>
                <g transform="matrix(0.599333,0,0,0.326857,117.779,0)">
                    <path d="M308.534,706.191C308.534,705.405 307.897,704.768 307.111,704.768L209.916,704.768C209.131,704.768 208.494,705.405 208.494,706.191L208.494,773.407C208.494,774.193 209.131,774.83 209.916,774.83L307.111,774.83C307.897,774.83 308.534,774.193 308.534,773.407L308.534,706.191ZM211.339,771.984L220.951,771.984L220.924,764.481L211.339,764.463L211.339,771.984ZM223.562,707.614L223.797,771.984L293.109,771.984L292.875,707.614L223.562,707.614ZM305.689,764.509L295.927,764.491L295.955,771.984L305.689,771.984L305.689,764.509ZM295.917,761.645L305.689,761.663L305.689,755.286L295.894,755.268L295.917,761.645ZM211.339,761.618L220.914,761.635L220.89,755.258L211.339,755.241L211.339,761.618ZM276.242,740.893C276.682,740.639 276.953,740.17 276.953,739.662C276.953,739.154 276.682,738.684 276.242,738.43L245.292,720.54C244.852,720.286 244.309,720.286 243.869,720.54C243.428,720.794 243.157,721.264 243.157,721.772L243.157,757.551C243.157,758.06 243.428,758.529 243.869,758.783C244.309,759.038 244.852,759.037 245.292,758.783L276.242,740.893ZM246.003,755.085L272.687,739.662L246.003,724.238L246.003,755.085ZM295.884,752.423L305.689,752.44L305.689,745.47L295.858,745.452L295.884,752.423ZM211.339,752.395L220.88,752.412L220.855,745.442L211.339,745.425L211.339,752.395ZM295.848,742.607L305.689,742.625L305.689,736.154L295.824,736.136L295.848,742.607ZM211.339,742.579L220.844,742.597L220.821,736.126L211.339,736.108L211.339,742.579ZM295.814,733.29L305.689,733.308L305.689,727L295.791,726.982L295.814,733.29ZM211.339,733.263L220.81,733.28L220.787,726.972L211.339,726.955L211.339,733.263ZM295.781,724.137L305.689,724.155L305.689,717.582L295.757,717.564L295.781,724.137ZM211.339,724.11L220.777,724.127L220.753,717.554L211.339,717.537L211.339,724.11ZM295.72,707.614L295.746,714.719L305.689,714.737L305.689,707.614L295.72,707.614ZM211.339,707.614L211.339,714.691L220.743,714.708L220.717,707.614L211.339,707.614Z" style="fill:rgb(70,51,61);"/>
                </g>
            </g>
        </g>
    </g>
</svg>
