<?xml version="1.0" encoding="UTF-8" standalone="no"?>
<svg width="100%" height="100%" viewBox="0 0 123 143" xmlns="http://www.w3.org/2000/svg" xml:space="preserve" style="fill-rule:evenodd;clip-rule:evenodd;stroke-linejoin:round;stroke-miterlimit:2;">
    <g transform="matrix(1,0,0,1,-33.7085,-44.9854)">
        <g transform="matrix(5.68835,0,0,3.27354,-669.967,0)">
            <g id="post-it" transform="matrix(0.293322,0,0,0.450776,83.2316,0)">
                <g transform="matrix(1.28189,0,0,1.44945,103.773,-13.4405)">
                    <rect x="27.351" y="42.012" width="23.556" height="23.556" style="fill:rgb(150,215,161);"/>
                </g>
                <g transform="matrix(1.27653,-0.132333,0.117035,1.4434,124.771,35.2231)">
                    <rect x="27.351" y="42.012" width="23.556" height="23.556" style="fill:white;"/>
                </g>
                <g transform="matrix(1.26624,0.2258,-0.199696,1.43176,154.251,-30.8742)">
                    <rect x="27.351" y="42.012" width="23.556" height="23.556" style="fill:white;"/>
                </g>
                <g transform="matrix(0.599333,0,0,0.677676,117.779,0)">
                    <path d="M129.715,131.388C129.643,130.605 128.95,130.029 128.168,130.101L77.996,134.701C77.213,134.772 76.637,135.465 76.709,136.247L81.309,186.42C81.38,187.202 82.073,187.778 82.855,187.707L133.028,183.107C133.81,183.035 134.386,182.342 134.315,181.56L129.715,131.388ZM79.672,137.404L84.012,184.743L131.351,180.403L127.011,133.064L79.672,137.404ZM93.819,172.985L115.311,170.99C116.093,170.918 116.669,170.224 116.596,169.442C116.524,168.66 115.83,168.084 115.048,168.157L93.556,170.152C92.774,170.224 92.198,170.918 92.271,171.7C92.343,172.482 93.037,173.058 93.819,172.985ZM93.036,164.444L105.912,163.249C106.693,163.176 107.269,162.483 107.197,161.701C107.124,160.919 106.43,160.343 105.649,160.416L92.773,161.611C91.991,161.683 91.415,162.377 91.488,163.159C91.56,163.941 92.254,164.517 93.036,164.444ZM92.253,155.906L118.005,153.516C118.786,153.444 119.362,152.75 119.29,151.968C119.217,151.186 118.524,150.61 117.742,150.683L91.99,153.073C91.208,153.146 90.632,153.839 90.705,154.621C90.777,155.403 91.471,155.979 92.253,155.906ZM86.937,70.024C86.937,69.238 86.3,68.601 85.514,68.601L35.131,68.601C34.345,68.601 33.708,69.238 33.708,70.024L33.708,120.407C33.708,121.193 34.345,121.83 35.131,121.83L85.514,121.83C86.3,121.83 86.937,121.193 86.937,120.407L86.937,70.024ZM36.554,71.447L36.554,118.984L84.091,118.984L84.091,71.447L36.554,71.447ZM155.815,60.385C155.938,59.609 155.408,58.88 154.632,58.758L104.864,50.909C104.088,50.787 103.359,51.317 103.237,52.093L95.388,101.861C95.266,102.637 95.796,103.365 96.572,103.488L146.34,111.336C147.116,111.459 147.844,110.929 147.967,110.153L155.815,60.385ZM98.421,100.899L145.377,108.304L152.783,61.347L105.826,53.942L98.421,100.899ZM47.393,101.359L60.324,101.344C61.109,101.343 61.746,100.705 61.745,99.92C61.744,99.135 61.106,98.498 60.321,98.499L47.39,98.513C46.605,98.514 45.968,99.153 45.969,99.938C45.97,100.723 46.608,101.36 47.393,101.359ZM47.393,92.785L73.255,92.756C74.041,92.755 74.677,92.117 74.676,91.332C74.676,90.547 74.037,89.91 73.252,89.911L47.39,89.94C46.605,89.941 45.968,90.579 45.969,91.364C45.97,92.15 46.608,92.786 47.393,92.785ZM113.209,76.708L138.76,80.708C139.535,80.83 140.264,80.298 140.385,79.523C140.507,78.747 139.976,78.018 139.2,77.897L113.649,73.897C112.873,73.775 112.145,74.307 112.023,75.083C111.902,75.858 112.433,76.587 113.209,76.708Z" style="fill:rgb(82,65,74);"/>
                </g>
                <g transform="matrix(0.599333,0,0,0.677676,118.177,-6.83316)">
                    <rect x="55.071" y="70.879" width="9.174" height="15.056" style="fill:rgb(98,102,79);"/>
                </g>
                <g transform="matrix(0.59683,-0.0618709,0.0547183,0.674846,139.648,40.3159)">
                    <rect x="55.071" y="70.879" width="9.174" height="15.056" style="fill:rgb(98,102,79);"/>
                </g>
                <g transform="matrix(0.592016,0.10557,-0.0933657,0.669403,167.569,-21.8104)">
                    <rect x="55.071" y="70.879" width="9.174" height="15.056" style="fill:rgb(98,102,79);"/>
                </g>
                <g transform="matrix(0.599333,0,0,0.677676,117.779,0)">
                    <path d="M108.354,124.079C108.282,123.296 107.589,122.72 106.807,122.792L97.672,123.629C96.889,123.701 96.313,124.393 96.385,125.176L97.759,140.169C97.831,140.952 98.523,141.528 99.306,141.456L108.441,140.619C109.224,140.547 109.8,139.854 109.728,139.072L108.354,124.079ZM99.348,126.333L100.463,138.493L106.765,137.915L105.65,125.755L99.348,126.333ZM66.332,60.795C66.332,60.01 65.695,59.373 64.909,59.373L55.736,59.373C54.95,59.373 54.313,60.01 54.313,60.795L54.313,75.852C54.313,76.637 54.95,77.274 55.736,77.274L64.909,77.274C65.695,77.274 66.332,76.637 66.332,75.852L66.332,60.795ZM57.159,62.218L57.159,74.429L63.487,74.429L63.487,62.218L57.159,62.218ZM136.9,48.059C137.022,47.283 136.492,46.554 135.716,46.432L126.655,45.003C125.878,44.881 125.15,45.411 125.028,46.187L122.682,61.059C122.56,61.835 123.09,62.564 123.866,62.686L132.927,64.115C133.704,64.238 134.432,63.708 134.555,62.931L136.9,48.059ZM125.715,60.097L131.965,61.083L133.868,49.021L127.617,48.035L125.715,60.097Z" style="fill:rgb(82,65,74);"/>
                </g>
            </g>
        </g>
    </g>
</svg>
