<?xml version="1.0" encoding="UTF-8" standalone="no"?>
<svg width="100%" height="100%" viewBox="0 0 72 157" xmlns="http://www.w3.org/2000/svg" xml:space="preserve" style="fill-rule:evenodd;clip-rule:evenodd;stroke-linejoin:round;stroke-miterlimit:2;">
    <g transform="matrix(1,0,0,1,-385.853,-239.226)">
        <g transform="matrix(5.68835,0,0,3.27354,-669.967,0)">
            <g id="guitare" transform="matrix(0.293322,0,0,0.934597,83.2316,0)">
                <g transform="matrix(0.599333,0,0,0.326857,117.779,0)">
                    <path d="M396.75,328.027C395.757,325.341 395.216,322.446 395.216,319.431C395.216,305.351 406.666,302.704 421.191,302.704C435.716,302.704 447.851,305.351 447.851,319.431C447.851,322.334 447.35,325.124 446.425,327.727C446.091,330.17 445.323,337.049 446.477,341.89C447.342,345.518 448.484,348.604 449.248,350.469C453.043,355 455.417,360.488 455.942,366.385C457.407,382.839 442.67,394.737 421.616,394.419C402.047,394.124 386.731,383.697 387.29,366.385C387.464,361.01 389.375,355.984 392.591,351.715C395.318,345.455 398.205,334.936 396.75,328.027Z" style="fill:rgb(211,127,87);"/>
                </g>
                <g transform="matrix(0.599333,0,0,0.268767,117.779,15.3576)">
                    <rect x="417.138" y="264.375" width="10.061" height="94.221" style="fill:white;"/>
                </g>
                <g transform="matrix(0.599333,0,0,0.326857,121.752,0)">
                    <circle cx="415.206" cy="330.987" r="11.404" style="fill:rgb(113,82,67);"/>
                </g>
                <g transform="matrix(0.599333,0,0,0.309466,121.752,6.42954)">
                    <path d="M430.307,363.434C430.307,360.736 428.237,358.549 425.682,358.549L404.158,358.549C401.603,358.549 399.533,360.736 399.533,363.434L399.533,364.803C399.533,367.501 401.603,369.688 404.158,369.688L425.682,369.688C428.237,369.688 430.307,367.501 430.307,364.803L430.307,363.434Z" style="fill:white;"/>
                </g>
                <g transform="matrix(0.599333,0,0,0.326857,121.752,0)">
                    <path d="M424.373,240.648L406.756,240.648L406.756,256.306C406.756,258.642 407.684,260.882 409.336,262.534C410.987,264.186 413.228,265.114 415.564,265.114L415.565,265.114C417.901,265.114 420.141,264.186 421.793,262.534C423.445,260.882 424.373,258.642 424.373,256.306L424.373,240.648Z" style="fill:rgb(211,127,87);"/>
                </g>
                <g transform="matrix(0.599333,0,0,0.326857,117.779,0)">
                    <path d="M411.962,243.355L411.962,240.648C411.962,239.863 412.599,239.226 413.385,239.226L431.001,239.226C431.787,239.226 432.424,239.863 432.424,240.648L432.424,256.306C432.424,259.019 431.346,261.622 429.428,263.54C429.169,263.799 428.897,264.043 428.615,264.271C428.79,264.509 428.893,264.803 428.892,265.121L428.704,301.593C440.524,302.689 449.274,306.99 449.274,319.431C449.274,322.447 448.762,325.348 447.817,328.059C447.485,330.523 446.771,336.986 447.861,341.56C448.674,344.974 449.74,347.895 450.484,349.73C454.381,354.451 456.815,360.147 457.359,366.259C458.893,383.49 443.644,396.175 421.595,395.842C401.136,395.533 385.283,384.438 385.868,366.339C386.05,360.727 388.02,355.473 391.349,350.999C393.95,344.976 396.724,335.019 395.376,328.411C394.351,325.602 393.793,322.579 393.793,319.431C393.793,306.311 402.961,302.249 415.622,301.444L415.809,265.107C415.81,264.864 415.873,264.635 415.981,264.435C415.623,264.162 415.281,263.863 414.959,263.54C413.04,261.622 411.962,259.019 411.962,256.306L411.962,255.868L407.95,255.795C407.165,255.781 406.539,255.132 406.553,254.347C406.568,253.562 407.217,252.936 408.002,252.95L411.962,253.022L411.962,250.971L407.95,250.898C407.165,250.884 406.539,250.235 406.553,249.45C406.568,248.665 407.217,248.039 408.002,248.053L411.962,248.125L411.962,246.201L407.95,246.128C407.165,246.113 406.539,245.464 406.553,244.679C406.568,243.894 407.217,243.268 408.002,243.282L411.962,243.355ZM415.607,304.279C404.714,304.946 396.639,308.108 396.639,319.431C396.639,322.273 397.149,325.002 398.085,327.533L398.142,327.734C399.65,334.891 396.721,345.799 393.895,352.283C393.851,352.385 393.794,352.482 393.727,352.571C390.689,356.605 388.877,361.352 388.712,366.431C388.178,382.957 402.957,392.715 421.638,392.997C441.697,393.3 455.921,382.188 454.525,366.511C454.026,360.906 451.764,355.69 448.157,351.383C448.063,351.271 447.987,351.144 447.932,351.009C447.148,349.098 445.979,345.937 445.093,342.22C443.897,337.2 444.669,330.067 445.016,327.534C445.029,327.438 445.052,327.343 445.085,327.251C445.956,324.798 446.428,322.167 446.428,319.431C446.428,311.749 442.449,307.814 436.418,305.892C434.096,305.152 431.487,304.696 428.689,304.433L428.608,320.094C432.242,322.36 434.662,326.393 434.662,330.987C434.662,335.628 432.192,339.697 428.496,341.948L428.414,357.719L432.311,357.719C435.651,357.719 438.359,360.427 438.359,363.767L438.359,365.063C438.359,368.403 435.651,371.111 432.311,371.111L410.787,371.111C407.446,371.111 404.739,368.403 404.739,365.063C404.739,364.633 404.739,364.197 404.739,363.767C404.739,360.427 407.446,357.719 410.787,357.719L415.361,357.719C415.342,357.626 415.333,357.529 415.333,357.43L415.412,342.09C411.585,339.869 409.009,335.726 409.009,330.987C409.009,326.2 411.637,322.022 415.527,319.818L415.607,304.279ZM435.514,363.767C435.514,361.999 434.08,360.565 432.311,360.565L410.787,360.565C409.018,360.565 407.584,361.999 407.584,363.767C407.584,364.197 407.584,364.633 407.584,365.063C407.584,366.832 409.018,368.265 410.787,368.265L432.311,368.265C434.08,368.265 435.514,366.832 435.514,365.063L435.514,363.767ZM425.643,343.238C424.899,343.469 424.126,343.635 423.331,343.727L423.258,357.719L425.569,357.719L425.643,343.238ZM418.179,357.445C418.178,357.535 418.169,357.625 418.152,357.714L418.151,357.719L420.413,357.719L420.485,343.743C419.719,343.663 418.972,343.515 418.252,343.305L418.179,357.445ZM420.602,321.081C419.825,321.177 419.075,321.363 418.363,321.627L418.267,340.31C418.976,340.582 419.724,340.775 420.5,340.879L420.602,321.081ZM423.447,321.135L423.345,340.854C424.152,340.732 424.927,340.512 425.659,340.208L425.754,321.805C425.025,321.494 424.252,321.266 423.447,321.135ZM415.509,323.268C413.278,325.1 411.854,327.878 411.854,330.987C411.854,334.058 413.245,336.808 415.43,338.639L415.509,323.268ZM428.59,323.641L428.514,338.402C430.541,336.575 431.817,333.928 431.817,330.987C431.817,328.082 430.573,325.465 428.59,323.641ZM426.043,265.785C425.302,266.086 424.525,266.3 423.729,266.421L423.462,318.262C424.256,318.363 425.027,318.536 425.77,318.776L426.043,265.785ZM418.651,265.904L418.379,318.632C419.101,318.43 419.849,318.29 420.616,318.217L420.883,266.453C420.117,266.354 419.369,266.169 418.651,265.904ZM414.808,254.469L414.808,256.306C414.808,258.265 415.586,260.143 416.971,261.528C418.356,262.913 420.234,263.691 422.193,263.691L422.193,263.691C424.152,263.691 426.031,262.913 427.416,261.528C428.801,260.143 429.579,258.265 429.579,256.306L429.579,242.071L414.808,242.071L414.808,254.469Z" style="fill:rgb(70,51,61);"/>
                </g>
            </g>
        </g>
    </g>
</svg>
