<?xml version="1.0" encoding="UTF-8" standalone="no"?>
<svg width="100%" height="100%" viewBox="0 0 111 93" version="1.1" xmlns="http://www.w3.org/2000/svg" xml:space="preserve" style="fill-rule:evenodd;clip-rule:evenodd;stroke-linejoin:round;stroke-miterlimit:2;">
    <g transform="matrix(1,0,0,1,-368.626,-64.5231)">
        <g transform="matrix(5.68835,0,0,3.27354,-669.967,0)">
            <g id="permis-voiture" transform="matrix(0.293322,0,0,0.450776,81.2682,7.55554)">
                <g transform="matrix(0.599333,0,0,0.677676,124.472,-16.7612)">
                    <path d="M381.557,97.244C381.557,97.244 388.532,68.823 394.603,67.434C401.963,65.75 449.204,65.124 454.706,67.081C460.487,69.138 467.39,97.359 467.39,97.359L381.557,97.244Z" style="fill:white;"/>
                </g>
                <g transform="matrix(-0.583271,0,0,0.677676,627.258,-16.4131)">
                    <path d="M374.219,134.276C374.219,134.276 392.175,138.684 392.292,138.637C392.408,138.591 393.948,154.56 388.546,154.844C383.144,155.127 375.447,156.347 374.414,150.706C373.382,145.066 374.219,134.276 374.219,134.276Z" style="fill:rgb(83,98,101);"/>
                </g>
                <g transform="matrix(0.599333,0,0,0.677676,124.472,-16.7612)">
                    <path d="M374.219,134.276C374.219,134.276 392.175,138.684 392.292,138.637C392.408,138.591 393.948,154.56 388.546,154.844C383.144,155.127 375.447,156.347 374.414,150.706C373.382,145.066 374.219,134.276 374.219,134.276Z" style="fill:rgb(83,98,101);"/>
                </g>
                <g transform="matrix(0.59476,0,0,0.664896,126.654,-15.3179)">
                    <path d="M477.071,110.263C477.071,106.898 475.749,103.671 473.397,101.291C471.044,98.912 467.853,97.575 464.526,97.575C443.78,97.575 402.558,97.575 381.812,97.575C378.485,97.575 375.294,98.912 372.942,101.291C370.589,103.671 369.267,106.898 369.267,110.263C369.267,120.141 369.267,132.185 369.267,132.185C405.488,144.364 441.429,144.629 477.071,132.185L477.071,110.263Z" style="fill:rgb(161,204,211);"/>
                </g>
                <g transform="matrix(0.599333,0,0,0.591814,125.251,-9.67025)">
                    <path d="M476.226,93.308C476.226,89.906 473.818,87.149 470.848,87.149C468.664,87.149 466.352,87.149 465.043,87.149C464.452,87.149 463.972,87.698 463.972,88.375C463.972,91.49 463.972,99.466 463.972,99.466L470.848,99.466C473.818,99.466 476.226,96.709 476.226,93.308C476.226,93.308 476.226,93.308 476.226,93.308Z" style="fill:rgb(161,204,211);"/>
                </g>
                <g transform="matrix(-0.599333,-8.29914e-17,6.40977e-17,-0.591814,631.707,101.315)">
                    <path d="M476.226,93.308C476.226,89.906 473.818,87.149 470.848,87.149C468.664,87.149 466.352,87.149 465.043,87.149C464.452,87.149 463.972,87.698 463.972,88.375C463.972,91.49 463.972,99.466 463.972,99.466L470.848,99.466C473.818,99.466 476.226,96.709 476.226,93.308C476.226,93.308 476.226,93.308 476.226,93.308Z" style="fill:rgb(161,204,211);"/>
                </g>
                <g transform="matrix(0.59784,0,0,0.677676,123.969,-16.3808)">
                    <circle cx="391.059" cy="117.16" r="8.072" style="fill:white;"/>
                </g>
                <g transform="matrix(0.59784,0,0,0.677676,166.183,-16.8737)">
                    <circle cx="391.059" cy="117.16" r="8.072" style="fill:white;"/>
                </g>
                <g transform="matrix(0.599333,0,0,0.677676,123.998,-15.5458)">
                    <path d="M384.14,84.111L388.259,71.609C390.005,66.31 394.954,62.73 400.533,62.73C413.214,62.73 437.25,62.73 450.02,62.73C455.679,62.73 460.68,66.412 462.36,71.816L466.018,83.582L473.129,83.582C474.867,83.582 476.534,84.272 477.763,85.501C478.992,86.73 479.682,88.397 479.682,90.135L479.682,90.136C479.682,91.874 478.992,93.541 477.763,94.77C476.555,95.977 474.924,96.665 473.219,96.688C474.008,97.201 474.747,97.799 475.423,98.475C477.976,101.027 479.41,104.489 479.41,108.099L479.41,129.966C479.41,130.453 479.161,130.906 478.749,131.167C478.31,131.447 477.847,131.719 477.361,131.987L477.361,149.487C477.361,152.482 474.933,154.91 471.938,154.91C468.908,154.91 464.762,154.91 461.731,154.91C458.736,154.91 456.309,152.482 456.309,149.487L456.309,138.251C446.881,139.797 435.967,140.546 425.027,140.506C414.364,140.467 403.682,139.681 394.337,138.192L394.337,149.487C394.337,152.482 391.909,154.91 388.914,154.91C385.883,154.91 381.738,154.91 378.707,154.91C375.712,154.91 373.284,152.482 373.284,149.487L373.284,132.47C372.409,132.061 371.59,131.636 370.834,131.196C370.396,130.941 370.126,130.473 370.126,129.966C370.126,129.966 370.126,117.872 370.126,108.099C370.126,104.489 371.56,101.027 374.113,98.475C374.573,98.015 375.062,97.592 375.576,97.206C373.982,97.11 372.472,96.435 371.336,95.299C370.107,94.07 369.417,92.403 369.417,90.665L369.417,90.664C369.417,88.926 370.107,87.259 371.336,86.03C372.565,84.801 374.232,84.111 375.97,84.111L384.14,84.111ZM376.13,133.672L376.13,149.487C376.13,150.91 377.284,152.064 378.707,152.064C381.738,152.064 385.883,152.064 388.914,152.064C390.337,152.064 391.491,150.91 391.491,149.487L391.491,137.709C385.63,136.652 380.387,135.302 376.13,133.672ZM474.515,133.373C470.364,135.175 465.107,136.634 459.154,137.751L459.154,149.487C459.154,150.91 460.308,152.064 461.731,152.064C464.762,152.064 468.908,152.064 471.938,152.064C473.362,152.064 474.515,150.91 474.515,149.487L474.515,133.373ZM476.564,129.168L476.564,108.099C476.564,105.244 475.43,102.506 473.411,100.487C471.392,98.468 468.654,97.334 465.799,97.334C445.316,97.334 404.221,97.334 383.737,97.334C380.882,97.334 378.144,98.468 376.125,100.487C374.106,102.506 372.972,105.244 372.972,108.099L372.972,129.133C383.286,134.711 404.209,137.584 425.038,137.661C445.855,137.737 466.603,135.034 476.564,129.168ZM476.744,132.316C476.744,132.316 476.744,132.316 476.744,132.316ZM408.577,125.463C419.869,131.041 430.957,131.029 441.849,125.697C442.554,125.352 442.846,124.499 442.501,123.794C442.156,123.088 441.303,122.796 440.598,123.141C430.528,128.071 420.277,128.069 409.837,122.912C409.133,122.564 408.279,122.854 407.931,123.558C407.584,124.262 407.873,125.116 408.577,125.463ZM390.517,105.627C385.029,105.627 380.573,110.083 380.573,115.571C380.573,121.06 385.029,125.515 390.517,125.515C396.005,125.515 400.461,121.06 400.461,115.571C400.461,110.083 396.005,105.627 390.517,105.627ZM460.55,105.164C455.062,105.164 450.606,109.62 450.606,115.108C450.606,120.597 455.062,125.052 460.55,125.052C466.039,125.052 470.494,120.597 470.494,115.108C470.494,109.62 466.039,105.164 460.55,105.164ZM390.517,108.473C394.435,108.473 397.616,111.654 397.616,115.571C397.616,119.489 394.435,122.67 390.517,122.67C386.599,122.67 383.419,119.489 383.419,115.571C383.419,111.654 386.599,108.473 390.517,108.473ZM460.55,108.01C464.468,108.01 467.649,111.191 467.649,115.108C467.649,119.026 464.468,122.207 460.55,122.207C456.633,122.207 453.452,119.026 453.452,115.108C453.452,111.191 456.633,108.01 460.55,108.01ZM409.203,118.605L441.22,118.691C442.005,118.693 442.644,118.057 442.646,117.272C442.648,116.487 442.012,115.848 441.227,115.846L409.211,115.76C408.426,115.758 407.786,116.394 407.784,117.179C407.782,117.964 408.418,118.603 409.203,118.605ZM409.202,111.515L441.218,111.628C442.004,111.631 442.643,110.996 442.646,110.211C442.649,109.425 442.014,108.786 441.228,108.783L409.212,108.67C408.427,108.667 407.787,109.302 407.784,110.088C407.782,110.873 408.417,111.513 409.202,111.515ZM466.462,94.504L466.184,93.701L459.643,72.661C458.333,68.447 454.433,65.575 450.02,65.575C437.25,65.575 413.214,65.575 400.533,65.575C396.182,65.575 392.323,68.367 390.962,72.499L383.853,94.077L383.72,94.488L383.737,94.488L437.894,94.488C440.074,90.414 444.384,87.67 449.33,87.67C454.275,87.67 458.585,90.414 460.765,94.488L465.799,94.488C466.021,94.488 466.241,94.494 466.462,94.504ZM457.39,94.488C455.541,92.061 452.614,90.516 449.33,90.516C446.045,90.516 443.118,92.061 441.269,94.488L457.39,94.488ZM380.747,94.413L383.203,86.956L375.97,86.956C374.986,86.956 374.043,87.347 373.348,88.042C372.653,88.737 372.262,89.68 372.262,90.664L372.262,90.665C372.262,91.648 372.653,92.591 373.348,93.287C374.043,93.982 374.986,94.372 375.97,94.372L380.76,94.372L380.747,94.413ZM466.902,86.427L469.208,93.843L473.129,93.843C474.112,93.843 475.055,93.453 475.751,92.758C476.446,92.062 476.836,91.119 476.836,90.136L476.836,90.135C476.836,89.151 476.446,88.208 475.751,87.513C475.055,86.818 474.112,86.427 473.129,86.427L466.902,86.427Z" style="fill:rgb(70,51,61);"/>
                </g>
            </g>
        </g>
    </g>
</svg>
