<?xml version="1.0" encoding="UTF-8" standalone="no"?>
<svg width="100%" height="100%" viewBox="0 0 94 129" version="1.1" xmlns="http://www.w3.org/2000/svg" xml:space="preserve" style="fill-rule:evenodd;clip-rule:evenodd;stroke-linejoin:round;stroke-miterlimit:2;">
    <g transform="matrix(1,0,0,1,-217.974,-49.4193)">
        <g transform="matrix(5.68835,0,0,3.27354,-669.967,0)">
            <g id="entrepreneur" transform="matrix(0.338718,0,0,1,77.885,0)">
                <g transform="matrix(0.51901,0,0,0.30548,117.779,0)">
                    <path d="M227.882,125.003C227.877,124.977 227.875,124.953 227.875,124.933C227.913,123.41 233.14,115.973 238.579,114.966C245.259,113.729 250.713,112.57 252.064,111.379C253.415,110.188 271.106,106.754 275.964,110.808C279.323,113.611 287.32,114.248 290.348,114.901C293.03,115.479 300.988,118.657 302.623,125.003L227.882,125.003Z" style="fill:white;"/>
                </g>
                <g transform="matrix(0.533515,0,0,0.30548,113.42,-1.05051)">
                    <path d="M280.605,116.58C271.305,130.221 260.32,130.222 251.472,116.611C258.578,111.085 256.903,105.766 257.072,95.129L274.589,95.003C275.06,104.833 272.858,111.909 280.605,116.58Z" style="fill:white;"/>
                </g>
                <g transform="matrix(0.51901,0,0,0.30548,117.779,0)">
                    <path d="M241.611,77.712C243.524,70.933 246.347,62.029 249.626,58.161C253.875,53.15 260.146,50.724 266.331,51.078C272.959,50.576 279.65,53.28 283.818,58.826C291.629,69.215 293.624,105.076 293.624,105.076C293.624,105.076 278.584,99.564 266.126,92.827C252.945,99.254 236.595,104.342 236.595,104.342C236.595,104.342 239.439,85.408 241.611,77.712Z" style="fill:white;"/>
                </g>
                <g transform="matrix(0.51901,0,0,0.30548,117.779,0)">
                    <path d="M248.362,77.015C254.57,74.694 262.864,71.219 266.324,68.092C267.276,67.231 267.981,66.214 268.436,65.122C268.672,65.701 268.991,66.26 269.393,66.786C271.687,69.784 277.181,73.693 282,76.796C282.014,77.073 282.021,77.352 282.021,77.633C282.021,104.591 265.186,108.277 265.186,108.277C265.186,108.277 248.351,104.591 248.351,77.633C248.351,77.426 248.355,77.219 248.362,77.015Z" style="fill:rgb(232,200,217);"/>
                </g>
                <g transform="matrix(-0.608156,-4.38362e-17,6.35604e-17,-0.30548,416.742,92.0938)">
                    <path d="M304.202,176.469L227.119,176.469L232.167,125.119L299.154,125.119L304.202,176.469Z" style="fill:rgb(232,200,217);"/>
                </g>
                <g transform="matrix(0.51901,0,0,0.30548,117.462,-0.163295)">
                    <circle cx="265.961" cy="152.73" r="5.241" style="fill:white;"/>
                </g>
                <g transform="matrix(0.51901,0,0,0.30548,117.779,0)">
                    <path d="M226.717,123.403C226.977,122.819 227.354,122.13 227.855,121.397C229.941,118.34 234.089,114.17 238.288,113.392C242.238,112.661 245.753,111.96 248.221,111.26C249.572,110.877 250.568,110.564 251.006,110.179C251.071,110.121 251.163,110.055 251.279,109.984C253.326,107.772 254.021,105.469 254.233,102.64C253.805,102.125 253.383,101.575 252.969,100.987C252.834,100.796 252.7,100.6 252.568,100.401C244.041,103.7 237.07,105.87 237.07,105.87C236.544,106.034 235.971,105.915 235.553,105.557C235.135,105.198 234.931,104.649 235.013,104.105C235.013,104.105 237.883,85.031 240.071,77.277C242.045,70.282 245.022,61.118 248.406,57.127C252.964,51.75 259.679,49.127 266.316,49.475C273.443,48.97 280.616,51.903 285.097,57.864C287.539,61.113 289.48,66.735 290.939,73.037C294.233,87.265 295.222,104.987 295.222,104.987C295.251,105.524 295.009,106.041 294.576,106.361C294.144,106.682 293.579,106.763 293.073,106.578C293.073,106.578 286.186,104.053 277.852,100.329C277.704,100.553 277.554,100.773 277.403,100.987C276.829,101.802 276.238,102.545 275.642,103.222C275.937,106.342 276.867,108.949 279.761,111.046C280.47,111.302 281.229,111.523 282.004,111.722C285.3,112.567 288.881,112.948 290.685,113.336C292.427,113.712 296.231,115.092 299.373,117.627C301.255,119.145 302.892,121.07 303.788,123.403L309.897,123.403C310.354,123.403 310.788,123.598 311.092,123.939C311.395,124.279 311.539,124.733 311.487,125.186L305.755,174.951L308.701,174.954C309.584,174.956 310.3,175.674 310.299,176.557C310.298,177.44 309.58,178.156 308.697,178.154L220.653,178.037C219.77,178.036 219.054,177.318 219.055,176.435C219.057,175.552 219.774,174.836 220.657,174.837L223.704,174.841L217.985,125.186C217.933,124.733 218.077,124.279 218.38,123.939C218.684,123.598 219.118,123.403 219.574,123.403L226.717,123.403ZM226.915,174.753L302.556,174.753L308.102,126.603L221.369,126.603L226.915,174.753ZM265.351,145.354C261.575,145.354 258.509,148.42 258.509,152.196C258.509,155.971 261.575,159.037 265.351,159.037C269.126,159.037 272.192,155.971 272.192,152.196C272.192,148.42 269.126,145.354 265.351,145.354ZM265.351,148.554C267.36,148.554 268.992,150.186 268.992,152.196C268.992,154.205 267.36,155.837 265.351,155.837C263.341,155.837 261.709,154.205 261.709,152.196C261.709,150.186 263.341,148.554 265.351,148.554ZM280.877,114.734C277.828,118.918 274.593,121.789 271.318,123.403L300.259,123.403C299.531,122.117 298.494,121.029 297.364,120.117C294.701,117.969 291.487,116.783 290.011,116.465C288.182,116.07 284.551,115.679 281.208,114.821C281.098,114.793 280.987,114.764 280.877,114.734ZM248.98,114.37C246.438,115.08 242.871,115.798 238.871,116.539C235.454,117.172 232.196,120.713 230.498,123.201C230.452,123.267 230.408,123.335 230.364,123.403L258.512,123.403C255.193,121.742 251.963,118.751 248.98,114.37ZM257.074,105.547C256.48,108.483 255.149,110.99 252.265,113.482C256.207,118.938 260.488,121.78 264.901,121.776C269.294,121.773 273.652,118.96 277.765,113.558C274.837,111.426 273.458,108.897 272.82,105.95C268.945,109.125 265.528,109.84 265.528,109.84C265.303,109.89 265.069,109.89 264.844,109.84C264.844,109.84 261.141,109.065 257.074,105.547ZM268.452,68.17C268.135,68.559 267.783,68.93 267.397,69.279C264.022,72.329 256.203,75.741 249.953,78.124C250.135,100.897 262.917,105.907 265.186,106.616C267.469,105.902 280.405,100.832 280.421,77.678C275.841,74.691 270.862,71.062 268.452,68.17ZM279.473,97.549C284.655,99.857 289.239,101.683 291.859,102.695C291.467,97.399 290.321,84.555 287.822,73.758C286.482,67.969 284.783,62.772 282.539,59.787C278.705,54.687 272.547,52.212 266.451,52.673L266.239,52.675C260.541,52.35 254.761,54.579 250.847,59.196C247.672,62.94 245.002,71.585 243.151,78.146C241.485,84.05 239.423,96.616 238.573,102.02C241.223,101.145 245.763,99.592 250.928,97.606C248.526,92.935 246.751,86.495 246.751,77.633C246.751,77.406 246.755,77.18 246.763,76.956C246.787,76.311 247.197,75.742 247.802,75.516C253.825,73.265 261.894,69.939 265.251,66.905C266.02,66.209 266.592,65.389 266.959,64.507C267.208,63.909 267.793,63.52 268.441,63.522C269.089,63.524 269.672,63.917 269.917,64.517C270.101,64.968 270.35,65.404 270.664,65.814C272.879,68.71 278.211,72.453 282.867,75.451C283.3,75.73 283.573,76.202 283.598,76.717C283.613,77.02 283.621,77.326 283.621,77.633C283.621,86.459 281.86,92.882 279.473,97.549Z" style="fill:rgb(70,51,61);"/>
                </g>
            </g>
        </g>
    </g>
</svg>
