<?xml version="1.0" encoding="UTF-8" standalone="no"?>
<svg width="100%" height="100%" viewBox="0 0 108 107" xmlns="http://www.w3.org/2000/svg" xml:space="preserve"
     style="fill-rule:evenodd;clip-rule:evenodd;stroke-linejoin:round;stroke-miterlimit:2;">
    <g transform="matrix(1,0,0,1,-532.344,-61.4818)">
        <g transform="matrix(5.68835,0,0,3.27354,-669.967,0)">
            <g transform="matrix(0.338718,0,0,1,77.885,0)">
                <g transform="matrix(0.51901,0,0,0.30548,117.779,0)">
                    <path d="M628.699,95.798C623.422,94.589 621.543,93.892 615.588,93.383L615.6,93.331C609.655,92.683 603.696,92.34 597.775,92.265L597.773,92.304C597.426,92.288 597.082,92.271 596.738,92.254C596.538,92.253 596.336,92.252 596.135,92.251L596.136,92.226C588.55,91.863 582.056,91.605 574.593,91.948L574.598,92.188C567.481,92.606 560.731,93.035 553.88,93.568C552.323,93.714 551.06,93.867 549.919,94.039C549.972,94.188 550.019,94.343 550.059,94.504C546.598,95.384 543.409,96.319 540.357,97.382C539.167,97.804 537.857,97.72 536.73,97.149C535.604,96.579 534.761,95.572 534.398,94.363C534.393,94.363 534.393,94.363 534.392,94.362C534.023,93.134 534.178,91.809 534.82,90.699C535.463,89.59 536.535,88.796 537.784,88.505C538.08,88.436 538.377,88.368 538.675,88.299L536.404,81.654C535.724,79.664 535.889,77.481 536.861,75.616C537.833,73.75 539.527,72.364 541.548,71.781C541.548,71.781 541.548,71.781 541.549,71.781C543.56,71.201 545.721,71.467 547.531,72.519C549.341,73.57 550.642,75.315 551.135,77.35C551.23,77.744 551.325,78.138 551.421,78.534L551.385,77.025C551.32,74.342 552.324,71.744 554.176,69.801C556.028,67.859 558.575,66.731 561.258,66.667C562.144,66.646 563.042,66.624 563.929,66.603C566.619,66.539 569.224,67.548 571.168,69.409C571.871,70.082 572.467,70.847 572.944,71.676C573.568,69.965 574.549,68.387 575.842,67.054C578.283,64.537 581.632,63.106 585.138,63.082C585.138,63.082 585.139,63.082 585.139,63.082C588.703,63.057 592.123,64.487 594.608,67.041C596.142,68.617 597.238,70.536 597.824,72.612C598.403,71.088 599.346,69.713 600.592,68.615C602.604,66.84 605.24,65.938 607.918,66.107C608.568,66.148 609.223,66.189 609.873,66.23C612.552,66.398 615.053,67.624 616.828,69.637C618.602,71.65 619.505,74.285 619.336,76.963L619.295,77.62L619.353,77.383C619.85,75.353 621.154,73.613 622.963,72.566C624.771,71.519 626.929,71.254 628.937,71.834C628.937,71.834 628.938,71.834 628.938,71.834C630.963,72.418 632.661,73.807 633.634,75.676C634.608,77.545 634.773,79.731 634.092,81.726L632.132,87.458C632.933,87.639 633.722,87.821 634.505,88.004C635.755,88.295 636.829,89.09 637.472,90.2C638.115,91.311 638.27,92.638 637.901,93.868C637.901,93.868 637.9,93.868 637.9,93.868C637.53,95.1 636.669,96.125 635.521,96.703C634.372,97.281 633.036,97.362 631.826,96.926L628.699,95.798Z" style="fill:rgb(200,132,130);"/>
                </g>
                <g transform="matrix(0.51901,0,0,0.30548,118.09,0.302658)">
                    <path d="M579.402,141.408L589.743,141.227C589.743,141.227 598.11,153.62 602.299,158.243C602.736,158.725 602.963,159.361 602.931,160.011C602.899,160.66 602.61,161.27 602.128,161.707C602.128,161.707 602.128,161.707 602.128,161.708C601.646,162.144 601.01,162.371 600.36,162.339C599.711,162.307 599.101,162.019 598.664,161.537L584.746,146.045L579.117,150.802L579.117,163.144C579.117,164.498 578.019,165.596 576.665,165.596L576.664,165.596C575.31,165.596 574.212,164.498 574.212,163.144L574.212,148.53L574.351,148.53L579.402,141.408Z" style="fill:rgb(144,81,83);"/>
                </g>
                <g transform="matrix(0.51901,0,0,0.30548,117.779,0)">
                    <circle cx="585.596" cy="119.976" r="6.555" style="fill:white;"/>
                </g>
                <g transform="matrix(0.51901,0,0,0.30548,117.779,0)">
                    <path d="M581.424,129.135L582.023,126.03L583.081,126.03C583.856,126.353 584.706,126.531 585.596,126.531C586.487,126.531 587.336,126.353 588.111,126.03L588.485,126.03L591.716,142.758L578.793,142.758L580.477,134.04L580.477,134.04L567.401,134.04C566.047,134.04 564.949,132.942 564.949,131.588C564.949,131.587 564.949,131.587 564.949,131.587C564.949,130.233 566.047,129.135 567.401,129.135L581.424,129.135ZM589.062,129.019L602.152,129.019C603.506,129.019 604.604,130.117 604.604,131.471C604.604,131.471 604.604,131.471 604.604,131.472C604.604,132.826 603.506,133.924 602.152,133.924L590.009,133.924L589.062,129.019Z" style="fill:rgb(144,81,83);"/>
                </g>
                <g transform="matrix(0.51901,0,0,0.30548,117.779,0)">
                    <path d="M533.711,161.064C533.852,154.874 540.262,153.664 540.262,153.664C540.262,153.664 540.224,146.949 546.233,146.839C552.242,146.729 554.187,154.002 554.187,154.002C554.187,154.002 562.29,153.463 562.131,160.553C561.971,167.644 550.532,166.299 547.218,166.241C543.67,166.179 533.571,167.255 533.711,161.064Z" style="fill:white;"/>
                </g>
                <g transform="matrix(-0.51901,0,0,0.30548,725.457,-5.57317)">
                    <path d="M533.711,161.064C533.852,154.874 540.262,153.664 540.262,153.664C540.262,153.664 540.224,146.949 546.233,146.839C552.242,146.729 554.187,154.002 554.187,154.002C554.187,154.002 562.29,153.463 562.131,160.553C561.971,167.644 550.532,166.299 547.218,166.241C543.67,166.179 533.571,167.255 533.711,161.064Z" style="fill:white;"/>
                </g>
                <g transform="matrix(0.51901,0,0,0.30548,117.779,0)">
                    <path d="M536.607,87.196L534.89,82.172C534.068,79.767 534.267,77.13 535.442,74.876C536.616,72.622 538.663,70.948 541.105,70.244C541.105,70.244 541.105,70.244 541.105,70.243C543.536,69.542 546.147,69.864 548.334,71.135C549.21,71.644 549.988,72.287 550.643,73.033C552.035,68.515 556.673,65.176 561.731,65.055C561.937,65.05 562.144,65.045 562.35,65.041C565.464,64.966 568.481,66.135 570.732,68.289C571.319,68.851 571.842,69.468 572.294,70.128C572.963,68.503 573.939,67.004 575.187,65.718C577.793,63.034 581.367,61.508 585.108,61.482C585.109,61.482 585.109,61.482 585.11,61.482C588.914,61.456 592.564,62.98 595.22,65.703C596.479,66.993 597.464,68.501 598.137,70.134C600.334,66.557 604.385,64.281 608.867,64.563C609.085,64.577 609.304,64.591 609.523,64.604C614.545,64.92 618.628,68.355 620.005,72.904C620.628,72.231 621.353,71.649 622.161,71.181C624.347,69.916 626.954,69.596 629.38,70.296C629.381,70.296 629.381,70.297 629.382,70.297C631.827,71.002 633.877,72.679 635.053,74.936C636.229,77.194 636.429,79.835 635.606,82.243L634.221,86.295C634.437,86.345 634.652,86.395 634.867,86.445C636.548,86.836 637.992,87.905 638.857,89.399C639.721,90.892 639.93,92.676 639.433,94.328C639.433,94.329 639.433,94.329 639.433,94.329C638.936,95.982 637.781,97.357 636.24,98.132C634.699,98.908 632.907,99.016 631.284,98.431L628.247,97.336C626.215,96.869 624.697,96.479 623.239,96.148L597.98,127.419L602.152,127.419C604.389,127.419 606.204,129.233 606.204,131.471C606.204,131.471 606.204,131.471 606.204,131.472C606.204,133.71 604.389,135.524 602.152,135.524L591.948,135.524L593.287,142.455C593.354,142.806 593.302,143.166 593.143,143.48C595.712,147.209 601.024,154.782 604.085,158.16C604.807,158.956 605.182,160.007 605.129,161.08C605.076,162.153 604.599,163.162 603.803,163.883C603.803,163.884 603.803,163.884 603.802,163.884C603.006,164.606 601.955,164.981 600.882,164.928C599.809,164.875 598.8,164.398 598.079,163.602L585.193,149.259L581.317,152.535L581.317,164.135C581.317,166.373 579.503,168.187 577.265,168.187L577.264,168.187C575.027,168.187 573.212,166.373 573.212,164.135L573.212,149.521C573.212,148.958 573.503,148.463 573.942,148.178L577.328,143.403C577.199,143.108 577.159,142.778 577.222,142.455L578.538,135.64L567.401,135.64C565.163,135.64 563.349,133.826 563.349,131.588C563.349,131.587 563.349,131.587 563.349,131.587C563.349,129.349 565.163,127.535 567.401,127.535L573.299,127.535L547.734,96.05C547.649,96.067 547.563,96.084 547.476,96.102C545.728,96.815 543.443,97.61 542.62,97.972C541.258,98.57 538.445,99.73 536.007,98.577C534.512,97.87 533.418,96.526 532.907,94.957C532.889,94.913 532.874,94.869 532.86,94.823C532.364,93.172 532.572,91.389 533.436,89.898C534.157,88.653 535.28,87.703 536.607,87.196ZM538.707,153.092C538.97,150.902 540.186,145.91 545.801,145.797C549.682,145.72 551.892,147.108 553.19,148.691C554.2,149.923 554.652,151.324 554.851,152.411C555.433,152.39 556.122,152.397 556.85,152.473C558.842,152.682 561.077,153.422 562.502,155.22C563.461,156.43 564.097,158.131 563.966,160.551C563.781,163.958 561.82,165.844 559.054,166.838C555.659,168.057 550.862,167.749 547.563,167.722C544.611,167.697 540.079,167.931 536.907,166.848C534.218,165.93 532.382,164.176 532.345,161.088C532.292,156.706 534.945,153.827 538.707,153.092ZM589.866,144.358L580.574,144.358L576.412,150.227L576.412,164.135C576.412,164.605 576.794,164.987 577.264,164.987L577.265,164.987C577.736,164.987 578.117,164.605 578.117,164.135L578.117,151.793C578.117,151.322 578.325,150.875 578.684,150.571L584.313,145.813C584.974,145.255 585.958,145.323 586.536,145.966C586.536,145.966 600.455,161.458 600.45,161.453C600.602,161.621 600.814,161.721 601.04,161.732C601.265,161.743 601.486,161.664 601.654,161.513C601.654,161.512 601.654,161.512 601.654,161.512C601.822,161.36 601.922,161.148 601.933,160.923C601.944,160.697 601.865,160.476 601.714,160.309C598.294,156.534 592.117,147.641 589.866,144.358ZM535.544,161.05C535.509,158.088 537.531,156.277 540.231,156.119C540.642,156.095 541.628,155.845 541.805,154.535C541.851,154.194 541.847,153.452 541.978,152.577C542.112,151.672 542.384,150.548 543.27,149.802C543.851,149.313 544.689,149.02 545.865,148.997C547.795,148.958 549.128,149.38 550.03,150.062C551.974,151.531 551.806,154.053 551.806,154.053C551.776,154.544 551.973,155.021 552.34,155.348C552.708,155.674 553.205,155.814 553.689,155.726C553.689,155.726 554.986,155.496 556.518,155.656C557.725,155.782 559.131,156.119 559.994,157.208C560.56,157.922 560.848,158.949 560.771,160.378C560.636,162.852 558.729,163.784 556.49,164.225C553.596,164.796 550.114,164.543 547.59,164.522C544.919,164.499 540.811,164.8 537.94,163.82C536.6,163.362 535.563,162.589 535.544,161.05ZM616.294,133.756C616.494,132.669 616.946,131.268 617.955,130.036C619.253,128.453 621.463,127.065 625.344,127.142C630.959,127.255 632.176,132.247 632.439,134.437C636.2,135.171 638.854,138.051 638.801,142.433C638.764,145.521 636.928,147.275 634.239,148.193C631.067,149.276 626.534,149.042 623.582,149.066C620.283,149.094 615.486,149.402 612.092,148.183C609.325,147.189 607.364,145.303 607.18,141.896C607.048,139.476 607.685,137.775 608.644,136.565C610.069,134.767 612.303,134.027 614.295,133.818C615.024,133.742 615.712,133.734 616.294,133.756ZM635.601,142.395C635.583,143.934 634.546,144.707 633.205,145.165C630.335,146.145 626.227,145.844 623.555,145.867C621.032,145.888 617.549,146.141 614.656,145.57C612.416,145.129 610.509,144.197 610.375,141.723C610.297,140.294 610.585,139.267 611.152,138.553C612.015,137.464 613.421,137.127 614.628,137.001C616.16,136.841 617.457,137.071 617.457,137.071C617.941,137.159 618.438,137.019 618.805,136.693C619.173,136.366 619.37,135.889 619.339,135.398C619.339,135.398 619.171,132.876 621.115,131.407C622.017,130.725 623.35,130.303 625.28,130.342C626.456,130.365 627.295,130.658 627.875,131.147C628.761,131.893 629.033,133.017 629.168,133.921C629.298,134.797 629.295,135.539 629.341,135.88C629.518,137.19 630.504,137.44 630.914,137.464C633.614,137.622 635.637,139.433 635.601,142.395ZM583.31,127.806L580.804,140.784L589.675,140.629L587.229,127.967C586.751,128.065 586.258,128.12 585.753,128.129L585.144,128.119L585.042,128.112C584.445,128.072 583.866,127.968 583.31,127.806ZM579.485,130.735L567.401,130.735C566.931,130.735 566.549,131.116 566.549,131.587C566.549,131.587 566.549,131.587 566.549,131.588C566.549,132.058 566.931,132.44 567.401,132.44L579.156,132.44L579.485,130.735ZM591.33,132.324L602.152,132.324C602.622,132.324 603.004,131.942 603.004,131.472L603.004,131.471C603.004,131 602.622,130.619 602.152,130.619L591.001,130.619L591.33,132.324ZM619.678,95.463C619.108,95.376 618.502,95.294 617.841,95.216C617.771,95.217 617.701,95.212 617.631,95.203C617.418,95.176 617.206,95.149 616.992,95.123C616.51,95.072 615.998,95.024 615.452,94.977C615.319,94.966 615.19,94.938 615.067,94.896C609.103,94.231 603.123,93.916 597.187,93.905C597.119,93.91 597.051,93.911 596.982,93.907C588.717,93.481 581.955,93.14 573.851,93.617C573.646,93.734 573.412,93.806 573.162,93.822C566.166,94.256 559.559,94.706 552.804,95.285C552.296,95.339 551.822,95.395 551.372,95.453L577.421,127.535L580.103,127.535L580.357,126.223C578.575,124.726 577.441,122.483 577.441,119.976C577.441,115.475 581.095,111.821 585.596,111.821C590.097,111.821 593.751,115.475 593.751,119.976C593.751,122.752 592.361,125.206 590.24,126.679L590.383,127.419L593.866,127.419L593.874,127.409L619.678,95.463ZM585.756,124.928C588.417,124.844 590.551,122.657 590.551,119.976C590.551,117.241 588.331,115.021 585.596,115.021C582.862,115.021 580.641,117.241 580.641,119.976C580.641,122.657 582.775,124.844 585.436,124.928L585.756,124.928ZM537.644,90.228C537.044,90.484 536.537,90.928 536.205,91.501C535.798,92.204 535.69,93.04 535.903,93.821C535.913,93.848 535.922,93.875 535.93,93.902C536.167,94.692 536.718,95.349 537.454,95.722C538.119,96.059 538.883,96.136 539.598,95.944L537.644,90.228ZM633.18,89.339L631.24,95.014L632.369,95.421C633.165,95.708 634.045,95.655 634.801,95.274C635.558,94.893 636.124,94.218 636.368,93.408C636.368,93.407 636.368,93.407 636.368,93.407C636.611,92.601 636.509,91.73 636.088,91.002C635.666,90.274 634.962,89.753 634.141,89.562C633.822,89.487 633.502,89.413 633.18,89.339ZM628.192,94.038L632.578,81.208C633.118,79.628 632.987,77.896 632.215,76.415C631.444,74.934 630.099,73.834 628.495,73.371C628.494,73.371 628.494,73.371 628.493,73.371C626.904,72.912 625.196,73.122 623.764,73.951C622.333,74.78 621.301,76.156 620.907,77.765C619.782,82.334 618.655,86.996 617.543,91.963C621.936,92.432 623.999,93.058 628.192,94.038ZM552.926,92.054C551.814,87.068 550.698,82.342 549.579,77.726C549.19,76.116 548.159,74.734 546.727,73.902C545.294,73.07 543.584,72.859 541.992,73.318L541.992,73.318C540.391,73.78 539.049,74.877 538.28,76.355C537.51,77.832 537.379,79.561 537.918,81.137L542.31,93.984C546.497,93.023 548.538,92.5 552.926,92.054ZM534.422,92.759C534.376,92.76 534.328,92.762 534.276,92.767L534.237,92.771C534.514,92.743 534.785,92.788 535.027,92.892C534.961,92.858 534.869,92.816 534.737,92.788C534.659,92.771 534.566,92.76 534.455,92.759L534.422,92.759ZM571.432,90.724L571.147,76.584C571.101,74.319 570.156,72.167 568.519,70.601C566.883,69.035 564.69,68.185 562.426,68.24C562.22,68.245 562.014,68.249 561.808,68.254C557.105,68.367 553.383,72.271 553.496,76.974L556.165,91.875C561.993,91.389 565.427,91.102 571.432,90.724ZM617.097,79.867L617.288,76.835C617.584,72.139 614.017,68.094 609.322,67.798C609.103,67.784 608.884,67.771 608.666,67.757C603.97,67.461 599.925,71.028 599.629,75.723L598.748,89.727L598.716,90.714C603.909,90.769 609.132,91.054 614.345,91.599C615.256,87.52 616.176,83.647 617.097,79.867ZM595.551,89.576L595.99,75.813C596.083,72.881 594.978,70.037 592.93,67.937C590.881,65.837 588.066,64.662 585.132,64.682C585.131,64.682 585.131,64.682 585.131,64.682C582.247,64.702 579.492,65.879 577.483,67.948C575.474,70.017 574.379,72.805 574.444,75.688L574.775,90.362C581.974,89.997 588.204,90.256 595.485,90.627L595.551,89.576Z" style="fill:rgb(70,51,61);"/>
                </g>
            </g>
        </g>
    </g>
</svg>
