<?xml version="1.0" encoding="UTF-8" standalone="no"?>
<!DOCTYPE svg PUBLIC "-//W3C//DTD SVG 1.1//EN" "http://www.w3.org/Graphics/SVG/1.1/DTD/svg11.dtd">
<svg width="100%" height="100%" viewBox="0 0 23 109" version="1.1" xmlns="http://www.w3.org/2000/svg" xmlns:xlink="http://www.w3.org/1999/xlink" xml:space="preserve" xmlns:serif="http://www.serif.com/" style="fill-rule:evenodd;clip-rule:evenodd;stroke-linejoin:round;stroke-miterlimit:2;">
    <g transform="matrix(1,0,0,1,-628.635,-704.868)">
        <g transform="matrix(7.84277,0,0,3.27354,-923.711,0)">
            <g transform="matrix(0.127506,0,0,0.30548,101.573,112.604)">
                <path d="M763.497,345.651L763.497,341.322C763.497,338.523 765.767,336.253 768.566,336.253C769.567,336.253 770.652,336.253 771.653,336.253C774.452,336.253 776.721,338.523 776.721,341.322L776.721,345.851C776.721,345.992 776.701,346.128 776.662,346.256C777.563,347.198 778.067,348.453 778.067,349.759L778.067,416.177C778.067,416.245 778.062,416.313 778.053,416.378C777.827,421.956 775.325,428.928 773.338,433.11C772.487,434.902 771.679,436.205 771.175,436.8C771.174,436.871 771.166,436.944 771.153,437.017C771.119,437.21 771.062,437.373 770.991,437.511L770.942,443.584C770.936,444.369 770.293,445.002 769.508,444.995C768.723,444.989 768.09,444.346 768.097,443.561L768.146,437.429C767.641,436.764 766.916,435.554 766.156,433.955C764.077,429.578 761.432,422.143 761.425,416.453C761.407,416.364 761.398,416.271 761.398,416.177L761.398,355.832L758.66,355.835L758.576,379.115C758.574,379.9 757.934,380.535 757.148,380.532C756.363,380.53 755.728,379.89 755.731,379.104L755.819,354.545C755.82,354.364 755.854,354.191 755.916,354.032C756.083,353.432 756.633,352.991 757.286,352.99L761.398,352.986L761.398,349.759C761.398,348.415 761.932,347.125 762.883,346.175C763.074,345.983 763.28,345.808 763.497,345.651ZM768.372,436.423L768.37,436.432L768.377,436.406L768.372,436.423Z" style="fill:rgb(20,24,42);"/>
            </g>
        </g>
    </g>
</svg>
