<?xml version="1.0" encoding="UTF-8" standalone="no"?>
<!DOCTYPE svg PUBLIC "-//W3C//DTD SVG 1.1//EN" "http://www.w3.org/Graphics/SVG/1.1/DTD/svg11.dtd">
<svg width="100%" height="100%" viewBox="0 0 72 138" version="1.1" xmlns="http://www.w3.org/2000/svg" xmlns:xlink="http://www.w3.org/1999/xlink" xml:space="preserve" xmlns:serif="http://www.serif.com/" style="fill-rule:evenodd;clip-rule:evenodd;stroke-linejoin:round;stroke-miterlimit:2;">
    <g transform="matrix(1,0,0,1,-59.9508,-466.928)">
        <g transform="matrix(5.68835,0,0,3.27354,-669.967,0)">
            <g id="mug" transform="matrix(0.293322,0,0,0.934597,83.2316,0)">
                <g transform="matrix(0.599333,0,0,0.326857,117.779,0)">
                    <rect x="72.651" y="592.418" width="45.126" height="12.017" style="fill:rgb(255,240,173);"/>
                </g>
                <g transform="matrix(-0.332354,-0.000324262,0.000130823,-0.0398813,206.944,198.995)">
                    <path d="M145.606,616.137L46.852,616.137L48.852,456.01L143.606,456.01L145.606,616.137Z" style="fill:rgb(255,240,173);"/>
                </g>
                <g transform="matrix(0.599333,0,0,0.326857,117.779,0)">
                    <path d="M68.552,553.736L72.044,592.744L118.704,592.591L122.408,553.739L68.552,553.736Z" style="fill:white;"/>
                </g>
                <g transform="matrix(0.599333,0,0,0.326857,117.779,0)">
                    <path d="M62.902,526.128L61.65,533.504L130.168,533.134L128.847,525.41L124.754,525.585L122.439,513.317L69.296,513.506C68.596,518.287 67.332,521.695 66.609,525.939L62.902,526.128Z" style="fill:white;"/>
                </g>
                <g transform="matrix(0.599333,0,0,0.326857,117.779,0)">
                    <path d="M65.771,524.408L68.017,512.837C68.147,512.169 68.733,511.686 69.414,511.686L122.438,511.686C123.119,511.686 123.705,512.169 123.835,512.837L126.081,524.408L129.248,524.408C129.971,524.408 130.579,524.949 130.662,525.667L131.533,533.178C131.58,533.582 131.452,533.986 131.182,534.289C130.912,534.592 130.526,534.765 130.12,534.765L125.115,534.765L119.509,603.244C119.449,603.982 118.832,604.55 118.091,604.55L73.104,604.55C72.364,604.55 71.747,603.982 71.686,603.244L66.08,534.765L61.374,534.765C60.968,534.765 60.581,534.592 60.311,534.289C60.041,533.986 59.913,533.582 59.96,533.178L60.832,525.667C60.915,524.949 61.523,524.408 62.245,524.408L65.771,524.408ZM117.418,593.916L73.778,593.916L74.415,601.705L116.78,601.705L117.418,593.916ZM73.545,591.07L117.651,591.07L120.616,554.844L70.572,554.752L73.545,591.07ZM70.339,551.906L120.849,551.999L122.26,534.765L68.935,534.765L70.339,551.906ZM124.057,531.92L128.523,531.92L127.981,527.254L63.512,527.254L62.971,531.92L67.138,531.92C67.22,531.905 67.305,531.897 67.389,531.897L123.806,531.897C123.891,531.897 123.975,531.905 124.057,531.92ZM70.587,514.531L68.682,524.34L123.169,524.34L121.265,514.531L70.587,514.531ZM102.834,499.352C102.834,499.352 101.514,497.681 100.986,495.578C100.676,494.344 100.633,492.935 101.495,491.685C103.382,488.949 104.11,485.032 103.563,482.045C103.136,479.705 101.921,477.936 100.121,477.302C99.381,477.041 98.568,477.43 98.307,478.171C98.046,478.912 98.435,479.725 99.176,479.986C100.104,480.313 100.544,481.35 100.764,482.557C101.19,484.885 100.623,487.938 99.152,490.07C97.776,492.066 97.731,494.3 98.226,496.27C98.904,498.972 100.602,501.117 100.602,501.117C101.09,501.733 101.985,501.838 102.601,501.35C103.217,500.863 103.321,499.968 102.834,499.352ZM89.591,489.909C89.591,489.909 91.184,488.285 92.141,485.937C93.158,483.443 93.477,480.187 90.793,477.125C89.394,475.53 88.896,474.342 89.034,473.31C89.132,472.582 89.538,471.979 89.991,471.413C90.607,470.643 91.33,469.945 91.895,469.237C92.384,468.624 92.284,467.728 91.67,467.238C91.056,466.748 90.16,466.849 89.67,467.463C89.107,468.169 88.384,468.866 87.77,469.635C86.992,470.606 86.382,471.681 86.214,472.931C85.998,474.538 86.475,476.517 88.653,479.001C90.437,481.036 90.182,483.206 89.506,484.863C88.77,486.668 87.554,487.921 87.554,487.921C87.006,488.483 87.017,489.385 87.579,489.933C88.14,490.482 89.042,490.471 89.591,489.909Z" style="fill:rgb(70,51,61);"/>
                </g>
            </g>
        </g>
    </g>
</svg>
