<?xml version="1.0" encoding="UTF-8" standalone="no"?>
<!DOCTYPE svg PUBLIC "-//W3C//DTD SVG 1.1//EN" "http://www.w3.org/Graphics/SVG/1.1/DTD/svg11.dtd">
<svg width="100%" height="100%" viewBox="0 0 124 123" version="1.1" xmlns="http://www.w3.org/2000/svg" xmlns:xlink="http://www.w3.org/1999/xlink" xml:space="preserve" xmlns:serif="http://www.serif.com/" style="fill-rule:evenodd;clip-rule:evenodd;stroke-linejoin:round;stroke-miterlimit:2;">
    <g transform="matrix(1,0,0,1,-360.075,-678.537)">
        <g transform="matrix(5.68835,0,0,3.27354,-669.967,0)">
            <g id="grue" transform="matrix(0.293322,0,0,0.934597,83.2316,0)">
                <g transform="matrix(0.599333,0,0,0.326857,117.779,0)">
                    <path d="M419.048,787.316L387.602,787.316L387.602,799.264L419.048,799.264L419.048,787.316ZM368.025,709.648L361.498,709.648L361.498,692.533L482.439,692.533L482.439,709.648L385.225,709.648L385.225,732.743L368.025,732.743L368.025,709.648Z" style="fill:rgb(240,132,27);"/>
                </g>
                <g transform="matrix(0.305308,0,0,0.464085,220.738,-133.251)">
                    <rect x="387.755" y="787.292" width="31.491" height="15.465" style="fill:white;"/>
                </g>
                <g transform="matrix(0.599333,0,0,0.326857,117.779,0)">
                    <path d="M412.389,678.597C412.519,678.558 412.657,678.537 412.8,678.537C412.981,678.537 413.154,678.571 413.314,678.633C413.384,678.66 413.453,678.693 413.52,678.732L464.5,691.11L482.439,691.11C483.225,691.11 483.862,691.747 483.862,692.533L483.862,709.648C483.862,710.434 483.225,711.071 482.439,711.071L468.419,711.071L468.386,716.685C470.989,717.029 477.074,718.6 477.153,725.774C477.234,733.031 470.079,734.704 468.2,734.721C465.928,734.74 459.033,733.531 459.569,726.31C459.635,725.429 460.403,724.768 461.283,724.833C462.164,724.899 462.826,725.667 462.76,726.547C462.433,730.951 466.786,731.533 468.172,731.521C469.378,731.51 474.005,730.469 473.954,725.81C473.886,719.717 467.23,719.789 467.23,719.789C466.649,719.79 466.139,719.48 465.859,719.016C465.653,718.767 465.53,718.448 465.532,718.101L465.573,711.071L414.222,711.071L414.222,748.476L414.222,785.893L419.048,785.893C419.834,785.893 420.471,786.53 420.471,787.316L420.471,799.264C420.471,800.05 419.834,800.687 419.048,800.687L387.602,800.687C386.817,800.687 386.18,800.05 386.18,799.264L386.18,787.316C386.18,786.53 386.817,785.893 387.602,785.893L393.623,785.893L393.623,768.794L393.623,711.071L386.647,711.071L386.647,732.743C386.647,733.529 386.01,734.166 385.225,734.166L368.025,734.166C367.24,734.166 366.603,733.529 366.603,732.743L366.603,711.071L361.498,711.071C360.712,711.071 360.075,710.434 360.075,709.648L360.075,692.533C360.075,691.747 360.712,691.11 361.498,691.11L362.079,691.11L394.511,678.641C394.67,678.576 394.843,678.54 395.024,678.537L395.051,678.537L412.389,678.597ZM389.025,788.739L389.025,797.842L417.626,797.842L417.626,788.739L389.025,788.739ZM396.468,785.893L409.465,785.893L396.468,772.333L396.468,785.893ZM396.974,768.749L411.377,783.776L411.377,752.272L396.974,768.749ZM396.468,736.003L396.468,765.003L410.795,748.613L396.468,736.003ZM397.158,732.82L411.377,745.335L411.377,719.425L397.158,732.82ZM383.802,711.071L369.448,711.071L369.448,731.32L383.802,731.32L383.802,711.071ZM396.468,711.071L396.468,729.56L410.752,716.104L405.674,711.071L396.468,711.071ZM409.716,711.071L411.377,712.717L411.377,711.071L409.716,711.071ZM362.921,708.226L465.59,708.226L465.673,693.956L464.358,693.956C464.34,693.956 464.322,693.956 464.304,693.956L362.921,693.956L362.921,708.226ZM468.519,693.956L468.435,708.226L481.016,708.226L481.016,693.956L468.519,693.956ZM370.008,691.11L393.623,691.11L393.623,682.031L370.008,691.11ZM414.222,691.11L452.44,691.11L414.222,681.831L414.222,691.11ZM396.468,691.11L400.715,691.11L409.533,681.433L396.468,681.387L396.468,691.11ZM404.565,691.11L411.377,691.11L411.377,683.634L404.565,691.11Z" style="fill:rgb(70,51,61);"/>
                </g>
            </g>
        </g>
    </g>
</svg>
