<?xml version="1.0" encoding="UTF-8" standalone="no"?>
<!DOCTYPE svg PUBLIC "-//W3C//DTD SVG 1.1//EN" "http://www.w3.org/Graphics/SVG/1.1/DTD/svg11.dtd">
<svg width="100%" height="100%" viewBox="0 0 121 97" version="1.1" xmlns="http://www.w3.org/2000/svg" xmlns:xlink="http://www.w3.org/1999/xlink" xml:space="preserve" xmlns:serif="http://www.serif.com/" style="fill-rule:evenodd;clip-rule:evenodd;stroke-linejoin:round;stroke-miterlimit:2;">
    <g transform="matrix(1,0,0,1,-524.07,-279.333)">
        <g transform="matrix(6.83505,0,0,3.27354,-805.023,0)">
            <g transform="matrix(0.146305,0,0,0.30548,117.779,0)">
                <path d="M565.053,350.149C555.825,350.136 549.359,350.222 548.918,350.492C547.267,351.503 541.605,372.964 541.605,372.964L524.07,372.964C524.07,372.964 534.194,358.697 536.789,355.129C538.586,352.658 538.476,352.123 537.864,350.787C537.503,349.996 535.088,349.986 534.941,349.79C526.343,338.343 528.245,332.001 528.954,328.506C529.663,325.011 534.941,320.199 534.941,320.199C534.941,320.199 535.884,320.244 537.864,320.199C542.885,320.086 542.479,319.943 542.506,318.178C542.509,317.972 532.946,286.631 532.946,286.631L535.969,279.637L556.48,279.333L560.635,285.517C560.635,285.517 556.736,299.566 553.048,310.735C551.592,315.144 551.298,317.785 551.69,319.054C552.162,320.581 554.178,320.199 554.178,320.199L597.235,320.199C597.235,320.199 601.252,320.168 605.016,320.199C608.682,320.23 613.964,320.507 610.375,315.2C595.661,292.754 613.798,286.631 613.798,286.631L644.505,286.631L644.505,293.439C615.796,329.785 636.231,348.181 636.231,348.181C636.231,348.181 635.992,350.532 636.231,350.787C636.303,350.863 628.704,350.777 617.961,350.647C622.553,352.745 625.747,357.38 625.747,362.755C625.747,370.097 619.786,376.059 612.443,376.059C605.1,376.059 599.139,370.097 599.139,362.755C599.139,357.265 602.471,352.548 607.221,350.516C596.36,350.385 584.128,350.248 573.681,350.184C578.883,351.993 582.621,356.941 582.621,362.755C582.621,370.097 576.659,376.059 569.316,376.059C561.973,376.059 556.012,370.097 556.012,362.755C556.012,356.902 559.799,351.928 565.053,350.149Z" style="fill:rgb(20,24,42);"/>
            </g>
        </g>
    </g>
</svg>
