<?xml version="1.0" encoding="UTF-8" standalone="no"?>
<!DOCTYPE svg PUBLIC "-//W3C//DTD SVG 1.1//EN" "http://www.w3.org/Graphics/SVG/1.1/DTD/svg11.dtd">
<svg width="100%" height="100%" viewBox="0 0 85 96" version="1.1" xmlns="http://www.w3.org/2000/svg" xmlns:xlink="http://www.w3.org/1999/xlink" xml:space="preserve" xmlns:serif="http://www.serif.com/" style="fill-rule:evenodd;clip-rule:evenodd;stroke-linejoin:round;stroke-miterlimit:2;">
    <g transform="matrix(1,0,0,1,-219.882,-495.428)">
        <g transform="matrix(5.68835,0,0,3.27354,-669.967,0)">
            <g id="fantome-pacman" serif:id="fantome pacman" transform="matrix(0.293322,0,0,0.934597,83.2316,0)">
                <g transform="matrix(0.599333,0,0,0.326857,117.779,0)">
                    <path d="M221.943,552.021C221.908,552.177 212.004,497.068 262.427,496.936C312.85,496.804 302.954,544.907 303.192,553.733C303.429,562.559 308.78,590.45 296.395,589.194C284.01,587.939 291.571,575.537 279.235,572.894C266.898,570.25 276.151,589.864 261.337,589.477C251.18,589.211 259.392,572.985 246.978,573.02C235.881,573.051 242.147,589.281 229.381,589.248C225.107,589.237 222.48,588.425 221.431,582.54C219.463,571.501 221.966,551.919 221.943,552.021Z" style="fill:rgb(175,219,243);"/>
                </g>
                <g transform="matrix(0.599333,0,0,0.326857,117.779,0)">
                    <ellipse cx="247.257" cy="532.644" rx="11.892" ry="16.027" style="fill:white;"/>
                </g>
                <g transform="matrix(0.599333,0,0,0.326857,117.779,0)">
                    <path d="M247.257,515.194C240.038,515.194 233.942,522.916 233.942,532.644C233.942,542.373 240.038,550.094 247.257,550.094C254.475,550.094 260.571,542.373 260.571,532.644C260.571,522.916 254.475,515.194 247.257,515.194ZM247.257,518.04C249.512,518.04 251.587,519.052 253.278,520.723C255.996,523.409 257.726,527.758 257.726,532.644C257.726,537.531 255.996,541.879 253.278,544.565C251.587,546.236 249.512,547.248 247.257,547.248C245.001,547.248 242.926,546.236 241.235,544.565C238.517,541.879 236.788,537.531 236.788,532.644C236.788,527.758 238.517,523.409 241.235,520.723C242.926,519.052 245.001,518.04 247.257,518.04Z" style="fill:rgb(70,51,61);"/>
                </g>
                <g transform="matrix(0.599333,0,0,0.326857,136.089,-0.0851658)">
                    <ellipse cx="247.257" cy="532.644" rx="11.892" ry="16.027" style="fill:white;"/>
                </g>
                <g transform="matrix(0.599333,0,0,0.326857,136.089,-0.0851658)">
                    <path d="M247.257,515.194C240.038,515.194 233.942,522.916 233.942,532.644C233.942,542.373 240.038,550.094 247.257,550.094C254.475,550.094 260.571,542.373 260.571,532.644C260.571,522.916 254.475,515.194 247.257,515.194ZM247.257,518.04C249.512,518.04 251.587,519.052 253.278,520.723C255.996,523.409 257.726,527.758 257.726,532.644C257.726,537.531 255.996,541.879 253.278,544.565C251.587,546.236 249.512,547.248 247.257,547.248C245.001,547.248 242.926,546.236 241.235,544.565C238.517,541.879 236.788,537.531 236.788,532.644C236.788,527.758 238.517,523.409 241.235,520.723C242.926,519.052 245.001,518.04 247.257,518.04Z" style="fill:rgb(70,51,61);"/>
                </g>
                <g transform="matrix(0.846005,0,0,0.419656,58.3886,-49.5399)">
                    <ellipse cx="241.625" cy="532.985" rx="3.734" ry="6.066" style="fill:rgb(0,97,207);"/>
                </g>
                <g transform="matrix(0.846005,0,0,0.419656,76.6248,-49.5399)">
                    <ellipse cx="241.625" cy="532.985" rx="3.734" ry="6.066" style="fill:rgb(0,97,207);"/>
                </g>
                <g transform="matrix(0.599333,0,0,0.326857,117.779,0)">
                    <path d="M230.624,590.528C230.643,590.528 230.662,590.528 230.681,590.527C237.084,590.272 238.838,585.74 240.237,581.115C240.703,579.576 241.133,578.042 241.792,576.759C242.599,575.187 243.803,574.059 246.094,574.059C247.696,574.059 248.896,574.388 249.81,574.988C251.208,575.907 251.915,577.415 252.479,579.044C253.239,581.241 253.719,583.667 254.645,585.662C255.864,588.29 257.763,590.264 261.539,590.525L261.637,590.528L263.141,590.528C263.171,590.528 263.2,590.527 263.229,590.525C269.586,590.129 271.095,585.627 272.36,581.053C273.296,577.669 273.966,574.159 278.444,574.125C282.989,574.09 284.246,577.643 285.465,581.101C286.213,583.225 286.915,585.366 287.984,587.026C289.237,588.972 290.955,590.322 293.632,590.524L293.739,590.528L296.592,590.528C298.743,590.528 300.806,589.674 302.327,588.153C303.848,586.632 304.702,584.569 304.702,582.418L304.702,534.163C304.702,523.89 300.621,514.037 293.357,506.773C286.093,499.509 276.24,495.428 265.967,495.428C263.523,495.428 261.061,495.428 258.617,495.428C248.344,495.428 238.491,499.509 231.227,506.773C223.963,514.037 219.882,523.89 219.882,534.163C219.882,552.279 219.882,572.279 219.882,582.418C219.882,584.569 220.736,586.632 222.257,588.153C223.778,589.674 225.841,590.528 227.992,590.528C227.992,590.528 230.624,590.528 230.624,590.528ZM293.802,587.682L296.592,587.682C297.988,587.682 299.327,587.128 300.315,586.14C301.302,585.153 301.857,583.814 301.857,582.418L301.857,534.163C301.857,524.644 298.075,515.516 291.345,508.785C284.614,502.054 275.485,498.273 265.967,498.273C263.523,498.273 261.061,498.273 258.617,498.273C249.098,498.273 239.97,502.054 233.239,508.785C226.509,515.516 222.727,524.644 222.727,534.163C222.727,552.279 222.727,572.279 222.727,582.418C222.727,583.814 223.282,585.153 224.269,586.14C225.257,587.128 226.596,587.682 227.992,587.682L230.589,587.682C235.413,587.479 236.457,583.784 237.513,580.291C238.931,575.605 240.401,571.214 246.094,571.214C250.882,571.214 253.111,573.463 254.489,576.416C255.655,578.914 256.092,582.021 257.226,584.464C258.022,586.181 259.242,587.5 261.695,587.682L263.09,587.682C267.833,587.369 268.669,583.722 269.617,580.295C270.897,575.669 272.303,571.326 278.422,571.279C284.468,571.233 286.527,575.554 288.149,580.156C288.82,582.061 289.417,583.996 290.376,585.485C291.144,586.678 292.171,587.546 293.802,587.682Z" style="fill:rgb(70,51,61);"/>
                </g>
            </g>
        </g>
    </g>
</svg>
