<?xml version="1.0" encoding="UTF-8" standalone="no"?>
<!DOCTYPE svg PUBLIC "-//W3C//DTD SVG 1.1//EN" "http://www.w3.org/Graphics/SVG/1.1/DTD/svg11.dtd">
<svg width="100%" height="100%" viewBox="0 0 144 150" version="1.1" xmlns="http://www.w3.org/2000/svg" xmlns:xlink="http://www.w3.org/1999/xlink" xml:space="preserve" xmlns:serif="http://www.serif.com/" style="fill-rule:evenodd;clip-rule:evenodd;stroke-linejoin:round;stroke-miterlimit:2;">
    <g transform="matrix(1,0,0,1,-24.2143,-671.142)">
        <g transform="matrix(5.68835,0,0,3.27354,-669.967,0)">
            <g id="appareil-photo" serif:id="appareil photo" transform="matrix(0.293322,0,0,0.934597,83.2316,0)">
                <g transform="matrix(0.403531,-0.241668,0.443128,0.220073,-190.86,114.336)">
                    <rect x="88.769" y="745.868" width="55.954" height="44.085" style="fill:white;"/>
                </g>
                <g transform="matrix(-0.350387,-0.26518,0.486239,-0.19109,-178.818,433.725)">
                    <rect x="88.769" y="745.868" width="55.954" height="44.085" style="fill:white;"/>
                </g>
                <g transform="matrix(0.531664,-0.318405,0.443128,0.220073,-209.4,125.441)">
                    <rect x="115.838" y="752.356" width="23.912" height="31.105" style="fill:rgb(139,119,120);"/>
                </g>
                <g transform="matrix(-0.461646,-0.349382,0.486239,-0.19109,-162.717,445.909)">
                    <rect x="115.838" y="752.356" width="23.912" height="31.105" style="fill:rgb(139,119,120);"/>
                </g>
                <g transform="matrix(0.599333,0,0,0.326857,117.779,0)">
                    <path d="M80.5,689.723L83.212,682.728C84.154,680.298 86.492,678.697 89.098,678.697C94.154,678.697 102.476,678.697 107.532,678.697C110.138,678.697 112.476,680.298 113.418,682.728L116.13,689.723L124.239,689.723C126.931,689.723 129.114,691.906 129.114,694.598C129.114,704.422 129.114,726.495 129.114,736.319C129.114,739.011 126.931,741.194 124.239,741.194C109.275,741.194 64.107,741.194 49.143,741.194C46.45,741.194 44.268,739.011 44.268,736.319C44.268,726.495 44.268,704.422 44.268,694.598C44.268,691.906 46.45,689.723 49.143,689.723L80.5,689.723Z" style="fill:rgb(237,29,36);"/>
                </g>
                <g transform="matrix(0.599333,0,0,0.326857,117.779,0)">
                    <circle cx="98.863" cy="714.325" r="20.479" style="fill:rgb(255,252,252);"/>
                </g>
                <g transform="matrix(0.599333,0,0,0.326857,122.578,-5.65019)">
                    <circle cx="90.855" cy="731.611" r="12.471" style="fill:white;"/>
                </g>
                <g transform="matrix(0.599333,0,0,0.326857,117.779,0)">
                    <rect x="53.179" y="684.828" width="13.394" height="4.895" style="fill:white;"/>
                </g>
                <g transform="matrix(0.599333,0,0,0.326857,117.779,0)">
                    <rect x="50.863" y="672.565" width="18.442" height="12.263" style="fill:white;"/>
                </g>
                <g transform="matrix(0.599333,0,0,0.326857,117.779,0)">
                    <path d="M24.805,772.331C24.168,772.791 24.023,773.68 24.483,774.317L57.195,819.713C57.654,820.35 58.544,820.495 59.181,820.035L94.947,794.262C95.585,793.803 95.729,792.913 95.27,792.276L62.557,746.88C62.098,746.243 61.209,746.099 60.571,746.558L24.805,772.331ZM134.902,743.943C134.321,743.414 133.421,743.456 132.892,744.037L95.218,785.407C94.689,785.988 94.731,786.888 95.312,787.417L127.907,817.1C128.488,817.629 129.388,817.587 129.917,817.006L167.591,775.635C168.12,775.054 168.078,774.154 167.497,773.625L134.902,743.943ZM27.623,773.808L58.672,816.895L92.129,792.785L61.081,749.698L27.623,773.808ZM98.28,786.271L128.771,814.038L164.529,774.771L134.038,747.005L98.28,786.271ZM33.898,773.848C33.26,774.307 33.116,775.197 33.575,775.834L51.994,801.394C52.453,802.032 53.343,802.176 53.98,801.717L79.215,783.532C79.853,783.072 79.997,782.183 79.538,781.546L61.119,755.986C60.66,755.348 59.771,755.204 59.133,755.663L33.898,773.848ZM135.293,753.153C134.712,752.624 133.812,752.666 133.283,753.247L112.071,776.54C111.542,777.121 111.584,778.021 112.165,778.55L135.163,799.493C135.744,800.022 136.644,799.98 137.173,799.399L158.385,776.106C158.914,775.525 158.872,774.625 158.291,774.096L135.293,753.153ZM36.716,775.325L53.471,798.576L76.398,782.055L59.643,758.804L36.716,775.325ZM115.133,777.404L136.027,796.431L155.323,775.242L134.429,756.215L115.133,777.404ZM51.757,686.251L50.863,686.251C50.077,686.251 49.44,685.614 49.44,684.828L49.44,672.565C49.44,671.779 50.077,671.142 50.863,671.142L69.304,671.142C70.09,671.142 70.727,671.779 70.727,672.565L70.727,684.828C70.727,685.614 70.09,686.251 69.304,686.251L67.996,686.251L67.996,688.301L79.526,688.301L81.886,682.213C83.04,679.236 85.905,677.274 89.098,677.274C94.154,677.274 102.476,677.274 107.532,677.274C110.725,677.274 113.59,679.236 114.744,682.213L117.104,688.301L124.239,688.301C127.717,688.301 130.537,691.12 130.537,694.598C130.537,704.422 130.537,726.495 130.537,736.319C130.537,739.797 127.717,742.616 124.239,742.616C109.275,742.616 64.107,742.616 49.143,742.616C45.664,742.616 42.845,739.797 42.845,736.319C42.845,726.495 42.845,704.422 42.845,694.598C42.845,691.12 45.664,688.301 49.143,688.301L51.757,688.301L51.757,686.251ZM80.5,691.146C81.087,691.146 81.614,690.785 81.827,690.238L84.539,683.242C85.268,681.36 87.079,680.12 89.098,680.12C94.154,680.12 102.476,680.12 107.532,680.12C109.551,680.12 111.362,681.36 112.091,683.242C112.091,683.242 114.803,690.238 114.803,690.238C115.016,690.785 115.543,691.146 116.13,691.146L124.239,691.146C126.146,691.146 127.691,692.692 127.691,694.598C127.691,704.422 127.691,726.495 127.691,736.319C127.691,738.225 126.146,739.771 124.239,739.771C109.275,739.771 64.107,739.771 49.143,739.771C47.236,739.771 45.69,738.225 45.69,736.319C45.69,726.495 45.69,704.422 45.69,694.598C45.69,692.692 47.236,691.146 49.143,691.146C49.143,691.146 80.5,691.146 80.5,691.146ZM98.863,692.423C86.775,692.423 76.961,702.237 76.961,714.325C76.961,726.413 86.775,736.227 98.863,736.227C110.951,736.227 120.765,726.413 120.765,714.325C120.765,702.237 110.951,692.423 98.863,692.423ZM98.863,695.268C109.381,695.268 117.92,703.807 117.92,714.325C117.92,724.843 109.381,733.382 98.863,733.382C88.345,733.382 79.806,724.843 79.806,714.325C79.806,703.807 88.345,695.268 98.863,695.268ZM98.863,700.431C91.195,700.431 84.969,706.657 84.969,714.325C84.969,721.993 91.195,728.219 98.863,728.219C106.531,728.219 112.757,721.993 112.757,714.325C112.757,706.657 106.531,700.431 98.863,700.431ZM98.863,703.277C104.961,703.277 109.911,708.227 109.911,714.325C109.911,720.423 104.961,725.373 98.863,725.373C92.765,725.373 87.815,720.423 87.815,714.325C87.815,708.227 92.765,703.277 98.863,703.277ZM53.179,697.729L66.573,697.729C67.358,697.729 67.996,697.091 67.996,696.306C67.996,695.521 67.358,694.883 66.573,694.883L53.179,694.883C52.394,694.883 51.757,695.521 51.757,696.306C51.757,697.091 52.394,697.729 53.179,697.729ZM54.602,686.251L54.602,688.301L65.15,688.301L65.15,686.251L54.602,686.251ZM52.285,673.988L52.285,683.406L67.882,683.406L67.882,673.988L52.285,673.988Z" style="fill:rgb(70,51,61);"/>
                </g>
            </g>
        </g>
    </g>
</svg>
