<?xml version="1.0" encoding="UTF-8" standalone="no"?>
<svg width="100%" height="100%" viewBox="0 0 204 196" xmlns="http://www.w3.org/2000/svg" xml:space="preserve" style="fill-rule:evenodd;clip-rule:evenodd;stroke-linejoin:round;stroke-miterlimit:2;">
    <g transform="matrix(1,0,0,1,-2486.45,-1142.16)">
        <g transform="matrix(7.84277,0,0,6.91852,-923.711,0)">
            <g transform="matrix(0.0889428,0,0,0.0990951,367.284,104.374)">
                <path d="M1050.32,631.661C1050.32,626.628 1048.35,621.802 1044.85,618.243C1041.36,614.684 1036.61,612.685 1031.67,612.685L777.92,612.685C772.974,612.685 768.23,614.684 764.732,618.243C761.235,621.802 759.27,626.628 759.27,631.661L759.27,879.057C759.27,884.089 761.235,888.916 764.732,892.475C768.23,896.033 772.974,898.033 777.92,898.033L1031.67,898.033C1036.61,898.033 1041.36,896.033 1044.85,892.475C1048.35,888.916 1050.32,884.089 1050.32,879.057L1050.32,631.661Z" style="fill:rgb(19,30,36);"/>
            </g>
        </g>
        <g transform="matrix(7.84277,0,0,6.91852,-923.711,0)">
            <g transform="matrix(0.100545,0,0,0.11018,347.547,135.169)">
                <path d="M906.685,377.581C917.134,343.515 948.911,319.599 987.708,317.6C987.744,317.62 1027.17,317.602 1027.2,317.72C1027.2,317.726 1027.2,482.077 1027.2,482.077C1027.2,482.077 987.561,482.207 987.708,482.077C948.382,481.011 916.899,461.119 906.61,426.924L924.567,407.139C926.752,435.953 949.092,457.538 978.135,458.854C1002.6,459.963 1003.2,458.825 1003.21,458.771C1003.21,458.767 1003.21,458.763 1003.21,458.759C1003.21,457.551 1003.21,341.166 1003.21,341.166C1003.21,341.166 995.729,340.476 978.135,342.157C951.888,344.664 926.96,368.673 924.586,397.304L906.685,377.581Z" style="fill:rgb(138,179,197);"/>
            </g>
        </g>
        <g transform="matrix(7.84277,0,0,6.91852,-923.711,0)">
            <g transform="matrix(0.100545,0,0,0.11018,358.751,97.8257)">
                <path d="M891.833,770.836C891.833,770.831 891.833,770.826 891.833,770.821C891.833,769.462 891.841,658.366 891.841,657.114C891.841,657.11 891.841,657.106 891.841,657.102C891.857,657.048 892.484,655.899 918.393,657.018C950.813,658.417 975.343,682.536 975.343,713.968C975.343,745.399 950.427,769.267 918.393,770.918C892.532,772.25 891.851,770.904 891.833,770.836ZM915.756,747.608C915.764,747.601 915.769,747.59 915.769,747.579C915.771,746.8 915.775,681.527 915.776,680.442C915.775,680.429 915.769,680.418 915.758,680.41C915.694,680.309 915.831,679.837 924.76,680.359C942.431,681.391 955.819,695.427 955.819,713.988C955.819,732.548 942.223,746.51 924.76,747.617C916.048,748.17 915.72,747.716 915.756,747.608Z" style="fill:white;"/>
            </g>
        </g>
        <g transform="matrix(7.84277,0,0,6.91852,-923.711,0)">
            <g transform="matrix(0.100545,0,0,0.11018,358.751,97.8257)">
                <path d="M971.988,694.529C974.167,700.551 975.343,707.084 975.343,713.968C975.343,721.816 973.79,729.193 970.961,735.866L955.465,719.11C955.698,717.447 955.819,715.738 955.819,713.988C955.819,713.34 955.803,712.698 955.771,712.064L971.988,694.529Z" style="fill:rgb(138,179,197);"/>
            </g>
        </g>
    </g>
</svg>
