<?xml version="1.0" encoding="UTF-8" standalone="no"?>
<svg width="100%" height="100%" viewBox="0 0 119 109" xmlns="http://www.w3.org/2000/svg" xml:space="preserve" style="fill-rule:evenodd;clip-rule:evenodd;stroke-linejoin:round;stroke-miterlimit:2;">
    <g transform="matrix(1,0,0,1,-29.5488,-274.221)">
        <g transform="matrix(5.68835,0,0,3.27354,-669.967,0)">
            <g id="contrat" transform="matrix(0.265757,0,0,1,86.4782,0)">
                <g transform="matrix(0.661498,0,0,0.30548,117.779,0)">
                    <path d="M129.465,285.023C129.465,282.614 128.508,280.303 126.804,278.599C125.1,276.895 122.789,275.938 120.38,275.938C99.552,275.938 50.139,275.938 50.139,275.938L50.139,371.849C50.139,374.259 51.096,376.57 52.8,378.273C54.504,379.977 56.815,380.934 59.224,380.934C80.052,380.934 129.465,380.934 129.465,380.934L129.465,285.023Z" style="fill:white;"/>
                </g>
                <g transform="matrix(0.661498,0,0,0.30548,117.779,0)">
                    <path d="M61.927,381.155C62.675,381.654 71.528,369.38 70.834,363.588L145.569,363.855C145.569,363.855 148.946,380.813 131.388,381.079C113.83,381.345 61.927,381.155 61.927,381.155Z" style="fill:rgb(1,114,185);"/>
                </g>
                <g transform="matrix(0.661498,0,0,0.268144,117.779,10.8802)">
                    <path d="M49.883,273.447L44.316,273.447C36.946,273.447 30.972,280.254 30.972,288.65L30.972,291.417L49.883,291.417L49.883,273.447Z" style="fill:rgb(1,114,185);"/>
                </g>
                <g transform="matrix(0.661498,0,0,0.30548,117.779,0)">
                    <path d="M44.316,274.221L121.718,274.221C126.715,274.221 130.766,278.272 130.766,283.269L130.766,361.963L146.458,361.963C147.244,361.963 147.881,362.6 147.881,363.386C147.881,363.386 147.881,364.672 147.881,366.558C147.881,370.874 146.166,375.013 143.114,378.065C140.063,381.117 135.923,382.831 131.607,382.831C111.941,382.831 77.738,382.831 60.484,382.831C57.295,382.831 54.237,381.565 51.982,379.31C49.727,377.055 48.461,373.997 48.461,370.808L48.461,292.839L30.972,292.839C30.186,292.839 29.549,292.202 29.549,291.417L29.549,288.988C29.549,280.832 36.16,274.221 44.316,274.221ZM71.558,364.808C70.487,372.912 66.787,377.511 63.749,379.986L131.607,379.986C135.169,379.986 138.584,378.571 141.102,376.053C143.621,373.535 145.035,370.119 145.035,366.558L145.035,364.808L71.558,364.808ZM51.312,361.963L51.312,364.808L51.306,364.808L51.306,370.808C51.306,373.242 52.273,375.577 53.994,377.298C55.277,378.58 56.9,379.444 58.651,379.801C59.817,379.326 67.634,375.698 68.851,363.448C68.859,363.369 68.873,363.292 68.893,363.217C68.937,362.802 68.977,362.383 69.015,361.963L127.92,361.963L127.92,283.269C127.92,279.843 125.143,277.066 121.718,277.066L51.306,277.066L51.306,361.963L51.312,361.963ZM94.507,352.336L116.763,352.336C117.549,352.336 118.186,351.699 118.186,350.914C118.186,350.128 117.549,349.491 116.763,349.491L94.507,349.491C93.722,349.491 93.085,350.128 93.085,350.914C93.085,351.699 93.722,352.336 94.507,352.336ZM61.588,336.312L116.763,336.312C117.549,336.312 118.186,335.674 118.186,334.889C118.186,334.104 117.549,333.466 116.763,333.466L61.588,333.466C60.803,333.466 60.165,334.104 60.165,334.889C60.165,335.674 60.803,336.312 61.588,336.312ZM61.588,324.812L116.763,324.812C117.549,324.812 118.186,324.174 118.186,323.389C118.186,322.604 117.549,321.966 116.763,321.966L61.588,321.966C60.803,321.966 60.165,322.604 60.165,323.389C60.165,324.174 60.803,324.812 61.588,324.812ZM61.588,312.865L116.763,312.865C117.549,312.865 118.186,312.227 118.186,311.442C118.186,310.657 117.549,310.019 116.763,310.019L61.588,310.019C60.803,310.019 60.165,310.657 60.165,311.442C60.165,312.227 60.803,312.865 61.588,312.865ZM61.588,301.546L116.763,301.546C117.549,301.546 118.186,300.909 118.186,300.123C118.186,299.338 117.549,298.701 116.763,298.701L61.588,298.701C60.803,298.701 60.165,299.338 60.165,300.123C60.165,300.909 60.803,301.546 61.588,301.546ZM69.399,290.216L109.827,290.216C110.612,290.216 111.25,289.579 111.25,288.793C111.25,288.008 110.612,287.371 109.827,287.371L69.399,287.371C68.614,287.371 67.977,288.008 67.977,288.793C67.977,289.579 68.614,290.216 69.399,290.216ZM48.461,277.066L44.316,277.066C37.732,277.066 32.394,282.404 32.394,288.988L32.394,289.994L48.461,289.994L48.461,277.066Z" style="fill:rgb(70,51,61);"/>
                </g>
            </g>
        </g>
    </g>
</svg>
