<?xml version="1.0" encoding="UTF-8" standalone="no"?>
<svg width="100%" height="100%" viewBox="0 0 115 67" xmlns="http://www.w3.org/2000/svg" xml:space="preserve" style="fill-rule:evenodd;clip-rule:evenodd;stroke-linejoin:round;stroke-miterlimit:2;">
    <g transform="matrix(1,0,0,1,-669.569,-443.812)">
        <g transform="matrix(6.83505,0,0,3.27354,-805.023,0)">
            <g transform="matrix(0.132831,0.338705,-0.217251,0.371441,273.036,-245.789)">
                <path d="M549.876,530.787L538.095,568.521L549.228,575.328L528.234,571.97L549.876,530.787Z" style="fill:rgb(79,82,95);"/>
            </g>
            <g transform="matrix(0.00120698,0.309054,-0.055384,0.000942975,252.054,-15.9538)">
                <path d="M538.55,531.267L550.488,566.44L529.335,565.98L538.55,531.267Z" style="fill:rgb(20,24,42);"/>
            </g>
            <g transform="matrix(0.146305,0,0,0.30548,138.905,-19.2662)">
                <path d="M560.135,571.557L545.903,541.216L525.911,528.543C525.351,528.188 525.068,527.524 525.199,526.874C525.331,526.224 525.849,525.723 526.503,525.613L638.266,506.903C638.93,506.792 639.592,507.108 639.923,507.693C640.255,508.279 640.184,509.009 639.747,509.52L591.924,565.475C591.421,566.064 590.567,566.207 589.898,565.815L578.74,559.271L563.35,572.435C563.133,572.825 562.758,573.119 562.298,573.221C562.281,573.225 562.263,573.228 562.245,573.232C561.643,573.438 560.95,573.271 560.511,572.758C560.215,572.412 560.093,571.977 560.135,571.557ZM563.55,568.052L575.819,557.558L563.55,550.362L563.55,568.052ZM615.995,518.214L549.627,541.62L560.35,564.48L560.35,547.569C560.35,547.44 560.366,547.313 560.396,547.191C560.48,546.713 560.78,546.279 561.246,546.042L615.995,518.214ZM631.985,513.677L565.202,547.621L590.362,562.377L631.985,513.677ZM621.098,513.022L531.156,528.079L548.01,538.763C548.022,538.77 548.033,538.777 548.044,538.785L621.098,513.022Z" style="fill:rgb(48,39,44);"/>
            </g>
        </g>
    </g>
</svg>
