<?xml version="1.0" encoding="UTF-8" standalone="no"?>
<svg width="100%" height="100%" viewBox="0 0 82 116" xmlns="http://www.w3.org/2000/svg" xml:space="preserve" style="fill-rule:evenodd;clip-rule:evenodd;stroke-linejoin:round;stroke-miterlimit:2;">
    <g transform="matrix(1,0,0,1,-378.612,-482.479)">
        <g transform="matrix(5.68835,0,0,3.27354,-669.967,0)">
            <g id="alternance" transform="matrix(0.293322,0,0,0.934597,83.2316,0)">
                <g transform="matrix(0.599333,0,0,0.326857,117.779,0)">
                    <path d="M380.234,504.258L390.849,504.061L390.341,492.192L397.339,485.277L398.444,504.387L410.092,503.866L408.794,484.361C408.794,484.361 423.51,498.789 423.574,500.956C423.761,507.25 413.227,517.565 410.282,522.929L410.104,591.267C410.104,591.267 408.71,597.111 403.58,597.224C396.301,597.384 396.917,589.967 396.917,589.967L397.168,523.946C389.624,518.48 383.95,511.934 380.234,504.258ZM444.77,494.43C444.77,494.43 445.004,556.82 445.121,563C445.121,563 448.992,583.124 451.335,582.995C453.677,582.867 458.617,567.247 458.809,563.657C458.971,560.616 458.823,510.688 458.405,495.794C458.329,493.098 457.083,492.619 457.083,492.619C457.083,492.619 458.194,486.412 456.556,484.919C454.919,483.427 450.745,484.317 448.199,484.508C445.653,484.7 446.611,492.704 446.611,492.704L444.77,494.43Z" style="fill:white;"/>
                </g>
                <g transform="matrix(0.599333,0,0,0.326857,117.779,0)">
                    <path d="M395.26,523.76C395.202,523.727 395.146,523.69 395.092,523.649C395.092,523.649 387.452,517.797 382.652,512.069C380.413,509.396 378.822,506.703 378.618,504.589C378.58,504.19 378.712,503.794 378.981,503.497C379.25,503.2 379.632,503.031 380.033,503.03L389.544,503.021L389.165,491.78C389.152,491.386 389.302,491.005 389.58,490.727L396.684,483.609C397.085,483.207 397.686,483.082 398.214,483.291C398.742,483.499 399.095,484.001 399.114,484.568L399.706,503.04L408.684,502.827L407.198,484.014C407.15,483.413 407.486,482.848 408.037,482.602C408.587,482.357 409.232,482.485 409.647,482.922L423.028,497.006C423.257,497.229 424.449,498.487 424.734,500.819C425.006,503.039 424.469,506.413 420.822,510.863C414.782,518.232 412.089,522.72 411.776,523.252L411.776,590.842C411.776,590.866 411.775,590.89 411.774,590.914C411.775,590.97 411.776,591.026 411.776,591.083C411.776,595.046 408.133,598.378 403.524,598.378C398.915,598.378 395.272,595.046 395.272,591.083C395.272,591.064 395.272,591.044 395.272,591.025C395.264,590.965 395.26,590.904 395.26,590.842L395.26,523.76ZM408.741,592.264L398.307,592.264C398.938,594.181 401.072,595.532 403.524,595.532C405.976,595.532 408.11,594.181 408.741,592.264ZM445.331,492.034L445.331,487.705C445.332,484.906 447.601,482.637 450.4,482.637C451.401,482.637 452.486,482.637 453.487,482.637C456.286,482.637 458.555,484.906 458.555,487.705L458.555,492.234C458.555,492.375 458.535,492.511 458.496,492.64C459.397,493.582 459.901,494.836 459.901,496.142L459.901,561.678C459.904,561.87 459.904,562.065 459.901,562.262L459.901,562.56C459.901,562.629 459.896,562.696 459.887,562.762C459.661,568.339 457.159,575.312 455.172,579.493C454.321,581.285 453.513,582.588 453.009,583.183C453.008,583.255 453,583.327 452.987,583.4C452.953,583.593 452.896,583.756 452.825,583.895L452.776,589.967C452.77,590.752 452.127,591.385 451.342,591.379C450.557,591.372 449.924,590.73 449.931,589.944L449.98,583.837C449.98,583.829 449.98,583.82 449.98,583.812C449.475,583.148 448.75,581.938 447.99,580.338C445.911,575.961 443.266,568.527 443.259,562.836C443.241,562.747 443.232,562.655 443.232,562.56L443.232,502.215L440.494,502.218L440.41,525.498C440.408,526.283 439.768,526.918 438.983,526.916C438.197,526.913 437.562,526.273 437.565,525.488L437.653,500.928C437.654,500.747 437.688,500.574 437.751,500.415C437.917,499.815 438.467,499.374 439.12,499.374L443.232,499.37L443.232,496.142C443.232,494.798 443.766,493.509 444.717,492.558C444.909,492.366 445.114,492.191 445.331,492.034ZM408.93,589.414L408.93,524.489L398.106,524.489L398.106,589.414L408.93,589.414ZM450.206,582.806L450.204,582.816L450.211,582.789L450.206,582.806ZM456.953,563.983L446.141,563.983C446.457,569.093 448.761,575.33 450.56,579.118C450.813,579.649 451.085,580.162 451.336,580.609C451.673,580.048 452.167,579.188 452.602,578.272C454.303,574.692 456.455,568.921 456.953,563.983ZM404.737,538.935C404.737,539.02 404.736,539.394 404.737,539.834C404.753,545.658 404.964,575.5 404.991,576.017C405.033,576.801 404.429,577.471 403.645,577.513C402.861,577.554 402.191,576.951 402.15,576.167C402.122,575.647 401.907,545.689 401.891,539.842C401.89,539.208 401.892,538.836 401.895,538.782C401.933,538.101 402.32,537.838 402.364,537.799C402.837,537.372 403.335,537.345 403.814,537.523C403.965,537.58 404.557,537.768 404.714,538.59C404.736,538.706 404.744,538.822 404.737,538.935ZM457.056,558.469L446.078,558.55L446.078,561.138L457.056,561.138L457.056,558.469ZM446.078,552.734L446.078,555.704L457.056,555.624L457.056,552.653L446.078,552.734ZM446.078,546.929L446.078,549.888L457.056,549.808L457.056,546.849L446.078,546.929ZM446.078,502.212L446.078,544.084L457.056,544.003L457.056,502.202L446.078,502.212ZM409.422,521.643C410.063,520.575 412.862,516.085 418.621,509.059C424.157,502.305 421.045,499.047 421.045,499.047C421.025,499.028 421.005,499.008 420.986,498.988L410.351,487.793L411.639,504.102C411.67,504.491 411.539,504.877 411.277,505.167C411.015,505.457 410.645,505.627 410.254,505.636L398.362,505.918C397.582,505.937 396.932,505.322 396.907,504.541L396.375,487.947L392.03,492.3L392.437,504.394C392.45,504.779 392.306,505.153 392.038,505.43C391.771,505.708 391.402,505.864 391.017,505.865L381.886,505.874C382.466,507.22 383.554,508.715 384.834,510.242C389.456,515.759 396.821,521.389 396.821,521.389C396.919,521.464 397.005,521.55 397.078,521.643L409.422,521.643ZM406.011,508.868L406.007,507.879C406.004,507.093 406.639,506.453 407.424,506.45C408.209,506.447 408.849,507.082 408.852,507.867L408.859,509.548C408.977,509.751 409.047,509.986 409.051,510.237C409.056,510.502 408.988,510.751 408.865,510.966L408.873,512.874C408.876,513.659 408.241,514.3 407.455,514.303C406.67,514.306 406.03,513.671 406.027,512.886L406.022,511.714L403.206,511.764L403.211,512.999C403.214,513.784 402.579,514.424 401.794,514.428C401.009,514.431 400.369,513.796 400.366,513.011L400.361,511.814L396.985,511.874L396.99,513.153C396.993,513.938 396.358,514.578 395.573,514.581C394.788,514.584 394.148,513.949 394.145,513.164L394.137,511.348C393.958,511.114 393.849,510.824 393.844,510.507C393.838,510.176 393.945,509.87 394.131,509.625L394.125,508.157C394.121,507.372 394.756,506.732 395.542,506.729C396.327,506.725 396.967,507.36 396.97,508.146L396.974,509.028L400.349,508.968L400.345,508.004C400.342,507.218 400.977,506.578 401.762,506.575C402.548,506.572 403.188,507.207 403.191,507.992L403.195,508.918L406.011,508.868ZM457.056,499.357L457.056,496.142C457.056,495.552 456.822,494.987 456.405,494.57C455.988,494.153 455.422,493.919 454.833,493.919C452.816,493.919 450.317,493.919 448.301,493.919C447.711,493.919 447.146,494.153 446.729,494.57C446.312,494.987 446.078,495.552 446.078,496.142L446.078,499.367L457.056,499.357ZM455.71,487.705C455.71,486.477 454.714,485.482 453.487,485.482C452.486,485.482 451.401,485.482 450.4,485.482C449.172,485.482 448.177,486.477 448.177,487.705L448.177,490.811L455.71,490.811L455.71,487.705Z" style="fill:rgb(70,51,61);"/>
                </g>
            </g>
        </g>
    </g>
</svg>
